<?xml version="1.0" encoding="UTF-8"?>
<svg version="1.1" xmlns="http://www.w3.org/2000/svg" width="225" height="225">
<path d="M0 0 C3 0 3 0 5.375 2.203125 C6.24125 3.12609375 7.1075 4.0490625 8 5 C15.51003657 12.26933027 23.21061129 18.36660503 32 24 C32.928125 24.60199219 33.85625 25.20398438 34.8125 25.82421875 C42.90192259 30.68022388 51.62174641 32.95242363 61.0625 31.5 C79.31993333 26.83224196 94.30261006 12.20598359 108 0 C109.15224028 0.92961422 110.29659176 1.8690125 111.4375 2.8125 C112.07558594 3.33457031 112.71367187 3.85664062 113.37109375 4.39453125 C115 6 115 6 116 9 C114.953125 10.5859375 114.953125 10.5859375 113.25 12.375 C112.60289062 13.08140625 111.95578125 13.7878125 111.2890625 14.515625 C110.53367187 15.33546875 109.77828125 16.1553125 109 17 C90.48598944 37.70242805 90.48598944 37.70242805 83.7890625 63.7734375 C85.43768153 81.17552721 98.75966049 95.54775996 110.08203125 107.83203125 C112.36973976 110.41793394 114.21519704 113.0511951 116 116 C114.47005208 117.23697917 112.94010417 118.47395833 111.41015625 119.7109375 C109.86733563 120.9666391 109.86733563 120.9666391 109 123 C105.38647628 121.75247396 103.26941563 120.54324539 100.75 117.6875 C89.9338852 106.52575747 73.98011249 93.22720856 58.0625 90.9375 C56.70832504 90.91721273 55.35280608 90.93583528 54 91 C53.34773438 90.9690625 52.69546875 90.938125 52.0234375 90.90625 C34.68940706 91.16593585 18.28288693 107.55067517 6.55859375 118.75 C4 121 4 121 0 123 C-3.465 119.535 -3.465 119.535 -7 116 C-6.05151133 112.5222082 -4.62605388 110.47886418 -2.0625 108.0625 C10.29470171 96.19443753 24.06244371 78.82895525 25.25 61.3125 C24.83353816 42.67583273 9.85358092 27.05097023 -2.0546875 14.2890625 C-4.01602241 11.98114632 -5.51879056 9.63636649 -7 7 C-6.21625 6.401875 -5.4325 5.80375 -4.625 5.1875 C-1.85425677 3.08914751 -1.85425677 3.08914751 0 0 Z " fill="#FDB81B" transform="translate(58,51)"/>
<path d="M0 0 C-0.2091421 9.41139448 -6.59330407 17.16647572 -13.15625 23.4609375 C-15.15563679 25.12991715 -17.26339242 26.50595733 -19.4375 27.9375 C-22.25909187 29.87298747 -22.25909187 29.87298747 -23.36328125 32.94140625 C-23.28798624 34.30969827 -23.17742329 35.67651864 -23.03125 37.0390625 C-22.9761294 40.49788033 -24.83658814 42.4760195 -27 45 C-30.20376395 47.08380409 -32.04587628 46.99783719 -35.75 46.4375 C-38.42323052 46.25535343 -38.42323052 46.25535343 -41 47 C-44.29285269 50.25750901 -46.53904416 54.09748006 -49 58 C-53.55239909 63.89249925 -58.53943584 69.642437 -65.875 71.875 C-66.57625 71.91625 -67.2775 71.9575 -68 72 C-68.33 71.67 -68.66 71.34 -69 71 C-69 62.72769359 -65.16883743 56.38584919 -59.52734375 50.45068359 C-50.87152778 41.93576389 -50.87152778 41.93576389 -47 40 C-46.64538376 38.03950138 -46.64538376 38.03950138 -46.5625 35.75 C-46.18313438 31.76666099 -45.66956287 29.12983234 -43 26 C-39.37987406 23.47433074 -36.921117 22.78784146 -32.625 23.3125 C-30.830625 23.6528125 -30.830625 23.6528125 -29 24 C-28.41992188 23.21496094 -27.83984375 22.42992187 -27.2421875 21.62109375 C-24.84659534 18.39929901 -22.43000691 15.19590018 -20 12 C-19.46632812 11.29230469 -18.93265625 10.58460938 -18.3828125 9.85546875 C-13.75877873 4.06889541 -7.78495537 -2.2985457 0 0 Z " fill="#FCB921" transform="translate(216,147)"/>
<path d="M0 0 C6.50615496 -1.02728762 10.90098642 2.42673777 16 6 C20.64321143 9.50116481 24.13141932 13.09028231 27.4375 17.875 C29.77005283 21.08173593 29.77005283 21.08173593 33.26171875 22.6875 C34.81070807 22.81039502 36.36429451 22.88633501 37.91796875 22.91015625 C40.93746535 23.04045348 42.69223621 24.11182962 45 26 C47.07102005 29.21389064 46.98190247 30.99253497 46.375 34.6875 C46.1706428 37.36797533 46.1706428 37.36797533 47 40 C50.59454296 43.62888573 54.72294621 46.25829885 59 49 C64.82412045 53.21420098 70.09877535 58.39510141 71.875 65.5 C71.91625 66.325 71.9575 67.15 72 68 C66.80116396 69.4538338 64.29493843 68.1929207 59.6875 65.7109375 C53.08676316 61.50872422 47.82506706 56.34519293 43.375 49.9375 C41.26955233 46.88990681 41.26955233 46.88990681 38.00390625 45.578125 C36.00047405 45.68416678 33.99994787 45.84127398 32 46 C27.99414926 43.92289221 25.57726247 42.24706773 24 38 C24.13240744 36.41111078 24.32402262 34.82646098 24.5625 33.25 C24.74464657 30.57676948 24.74464657 30.57676948 24 28 C20.74249099 24.70714731 16.90251994 22.46095584 13 20 C7.74143981 15.93736654 3.35533889 11.76698871 0 6 C-0.3125 2.5625 -0.3125 2.5625 0 0 Z " fill="#FBB920" transform="translate(7,147)"/>
<path d="M0 0 C-0.26164016 7.19510453 -2.66793784 11.34904303 -7 17 C-7.6084375 17.82628906 -8.216875 18.65257813 -8.84375 19.50390625 C-11.21886301 22.25335772 -13.74483866 24.12845511 -16.6875 26.25 C-20.58407152 29.22500552 -20.58407152 29.22500552 -22.83203125 33.40625 C-23.02671317 35.73111506 -23.02671317 35.73111506 -23 37.9921875 C-23 41.19373549 -23.82222573 42.68611484 -26 45 C-30.90313112 47.42316905 -34.63927682 48.38280138 -40 47 C-41.60446931 49.08310086 -43.20858518 51.16647227 -44.8125 53.25 C-45.49022461 54.12978516 -45.49022461 54.12978516 -46.18164062 55.02734375 C-46.62314453 55.60097656 -47.06464844 56.17460938 -47.51953125 56.765625 C-47.94959473 57.32185547 -48.3796582 57.87808594 -48.82275391 58.45117188 C-49.81175759 59.75234138 -50.76052048 61.08396023 -51.69921875 62.421875 C-52.12847656 62.94265625 -52.55773437 63.4634375 -53 64 C-53.66 64 -54.32 64 -55 64 C-55 64.66 -55 65.32 -55 66 C-56.79296875 67.54296875 -56.79296875 67.54296875 -59.1875 69.1875 C-59.96480469 69.73792969 -60.74210937 70.28835937 -61.54296875 70.85546875 C-64.50997633 72.23755654 -65.92557562 71.94471655 -69 71 C-68.7908579 61.58860552 -62.40669593 53.83352428 -55.84375 47.5390625 C-53.84436321 45.87008285 -51.73660758 44.49404267 -49.5625 43.0625 C-46.74090813 41.12701253 -46.74090813 41.12701253 -45.63671875 38.05859375 C-45.71201376 36.69030173 -45.82257671 35.32348136 -45.96875 33.9609375 C-46.0238706 30.50211967 -44.16341186 28.5239805 -42 26 C-38.79623605 23.91619591 -36.95412372 24.00216281 -33.25 24.5625 C-30.57436302 24.73973846 -30.57436302 24.73973846 -28 24 C-25.52428614 21.55129392 -23.81133458 18.96289443 -21.9375 16.03125 C-17.73324963 9.45363248 -9.0492268 -3.01640893 0 0 Z " fill="#FBB71C" transform="translate(78,7)"/>
<path d="M0 0 C10.10362928 0.21049228 18.25115617 8.09719015 25 15 C26.04693809 16.48189788 27.06970731 17.9812955 28.0625 19.5 C29.92471809 22.29049951 29.92471809 22.29049951 32.93359375 23.359375 C34.30442518 23.28681681 35.67386914 23.17899846 37.0390625 23.03515625 C40.53788371 22.97242838 42.47623954 24.77668722 45 27 C46.5601481 29.4820538 47.12053544 31.11380989 46.72265625 34.0390625 C46.39555717 36.64689351 46.3118569 38.44831409 47 41 C50.29470288 44.22320842 54.13213785 46.52007783 58 49 C63.49594327 53.17250543 68.15123673 57.60700074 71 64 C71.3125 67 71.3125 67 71 69 C63.84194088 70.13021986 58.59990668 65.59545206 53.08203125 61.6171875 C49.42515806 58.6883417 46.8681545 55.48363704 44.125 51.6875 C41.4852308 48.15315547 41.4852308 48.15315547 37.66796875 46.2421875 C35.3297074 46.03445661 35.3297074 46.03445661 33.046875 46.05859375 C30.0652675 45.97324239 28.3031359 44.81459192 26 43 C23.80610471 39.70915707 23.30645682 37.90732442 23 34 C23.9375 30.625 23.9375 30.625 25 28 C23.90171875 27.60748047 23.90171875 27.60748047 22.78125 27.20703125 C16.3053492 24.39656306 10.75116126 19.13639055 6 14 C5.20916016 13.18208984 5.20916016 13.18208984 4.40234375 12.34765625 C1.04299944 8.71829372 -0.87701578 6.16533738 -1 1 C-0.67 0.67 -0.34 0.34 0 0 Z " fill="#F7C44D" transform="translate(147,9)"/>
<path d="M0 0 C10.10362928 0.21049228 18.25115617 8.09719015 25 15 C26.04693809 16.48189788 27.06970731 17.9812955 28.0625 19.5 C29.92471809 22.29049951 29.92471809 22.29049951 32.93359375 23.359375 C34.30214594 23.28693745 35.66922824 23.17535531 37.03125 23.0234375 C40.45354751 22.98269586 42.49649943 24.87202451 45 27 C45 27.66 45 28.32 45 29 C43.68 28.67 42.36 28.34 41 28 C41 27.34 41 26.68 41 26 C40.37351563 26.09539063 39.74703125 26.19078125 39.1015625 26.2890625 C38.28429687 26.39992188 37.46703125 26.51078125 36.625 26.625 C35.40683594 26.79902344 35.40683594 26.79902344 34.1640625 26.9765625 C33.44992188 26.98429687 32.73578125 26.99203125 32 27 C31.34 26.34 30.68 25.68 30 25 C29.34 25.99 28.68 26.98 28 28 C27.34 28 26.68 28 26 28 C26.495 34.93 26.495 34.93 27 42 C28.32 42 29.64 42 31 42 C31 42.66 31 43.32 31 44 C33.97 44 36.94 44 40 44 C40 44.66 40 45.32 40 46 C30.3597561 46.56707317 30.3597561 46.56707317 26 43 C23.80610471 39.70915707 23.30645682 37.90732442 23 34 C23.9375 30.625 23.9375 30.625 25 28 C23.90171875 27.60748047 23.90171875 27.60748047 22.78125 27.20703125 C16.3053492 24.39656306 10.75116126 19.13639055 6 14 C5.20916016 13.18208984 5.20916016 13.18208984 4.40234375 12.34765625 C1.04299944 8.71829372 -0.87701578 6.16533738 -1 1 C-0.67 0.67 -0.34 0.34 0 0 Z " fill="#FBB719" transform="translate(147,9)"/>
<path d="M0 0 C-0.26164016 7.19510453 -2.66793784 11.34904303 -7 17 C-7.6084375 17.82628906 -8.216875 18.65257813 -8.84375 19.50390625 C-11.21886301 22.25335772 -13.74483866 24.12845511 -16.6875 26.25 C-20.58407152 29.22500552 -20.58407152 29.22500552 -22.83203125 33.40625 C-23.03004429 35.72984546 -23.03004429 35.72984546 -22.98046875 37.984375 C-23.00966477 40.99740437 -24.09047319 42.73685712 -26 45 C-28 45.9375 -28 45.9375 -30 46 C-30.99 45.34 -31.98 44.68 -33 44 C-31.02 44 -29.04 44 -27 44 C-27.020625 43.195625 -27.04125 42.39125 -27.0625 41.5625 C-27 39 -27 39 -26 38 C-25.76518307 35.81707226 -25.58636677 33.62796826 -25.4375 31.4375 C-25.35371094 30.23996094 -25.26992188 29.04242188 -25.18359375 27.80859375 C-25.12300781 26.88175781 -25.06242187 25.95492187 -25 25 C-25.66 25 -26.32 25 -27 25 C-27 25.66 -27 26.32 -27 27 C-31.29 26.67 -35.58 26.34 -40 26 C-39.34 25.34 -38.68 24.68 -38 24 C-36.45337471 24.14086364 -34.91150129 24.33654393 -33.375 24.5625 C-30.64276816 24.73926324 -30.64276816 24.73926324 -28 24 C-25.51763135 21.55360771 -23.8129216 18.96537734 -21.9375 16.03125 C-17.73324963 9.45363248 -9.0492268 -3.01640893 0 0 Z " fill="#FCB929" transform="translate(78,7)"/>
<path d="M0 0 C1.32 0.33 2.64 0.66 4 1 C3.34 1.66 2.68 2.32 2 3 C2.04125 4.0725 2.0825 5.145 2.125 6.25 C1.97439641 10.76810766 0.87220089 12.5693156 -2 16 C-5.20048966 18.08845512 -7.04732163 17.99761854 -10.75 17.4375 C-13.42323052 17.25535343 -13.42323052 17.25535343 -16 18 C-19.29285269 21.25750901 -21.53904416 25.09748006 -24 29 C-28.55239909 34.89249925 -33.53943584 40.642437 -40.875 42.875 C-41.57625 42.91625 -42.2775 42.9575 -43 43 C-43.33 42.67 -43.66 42.34 -44 42 C-44 33.7306314 -40.17220129 27.34006402 -34.49511719 21.43457031 C-31.11676159 18.14943868 -27.59155051 15.04898459 -24 12 C-23.34 12.33 -22.68 12.66 -22 13 C-22.48210937 13.51949219 -22.96421875 14.03898438 -23.4609375 14.57421875 C-27.43018243 18.84419363 -27.43018243 18.84419363 -30.125 23.9375 C-30.558125 24.9584375 -30.558125 24.9584375 -31 26 C-33.625 26.8125 -33.625 26.8125 -36 27 C-35.67 27.66 -35.34 28.32 -35 29 C-34.34 28.67 -33.68 28.34 -33 28 C-30.875 28.9375 -30.875 28.9375 -29 30 C-29 29.34 -29 28.68 -29 28 C-27.68 27.67 -26.36 27.34 -25 27 C-25 26.34 -25 25.68 -25 25 C-26.32 25.33 -27.64 25.66 -29 26 C-29.33 25.34 -29.66 24.68 -30 24 C-29.67 23.34 -29.34 22.68 -29 22 C-26.69 22.33 -24.38 22.66 -22 23 C-22 21.02 -22 19.04 -22 17 C-20.68 17 -19.36 17 -18 17 C-17.67 16.01 -17.34 15.02 -17 14 C-16.34 14.33 -15.68 14.66 -15 15 C-13.29297265 15.06996014 -11.58331997 15.08440154 -9.875 15.0625 C-8.50988281 15.04896484 -8.50988281 15.04896484 -7.1171875 15.03515625 C-6.41851562 15.02355469 -5.71984375 15.01195312 -5 15 C-5 14.01 -5 13.02 -5 12 C-4.34 11.34 -3.68 10.68 -3 10 C-2.01 10 -1.02 10 0 10 C0 6.7 0 3.4 0 0 Z " fill="#F7C03D" transform="translate(191,176)"/>
<path d="M0 0 C0.66 0 1.32 0 2 0 C3.46282403 6.66397615 2.68929501 12.72497832 0 19 C-0.99 19.33 -1.98 19.66 -3 20 C-3 20.66 -3 21.32 -3 22 C-6.37817425 22.84454356 -8.67465243 23.10844919 -12 22 C-12 21.01 -12 20.02 -12 19 C-12.99 19 -13.98 19 -15 19 C-15 18.01 -15 17.02 -15 16 C-15.66 16 -16.32 16 -17 16 C-17.05447047 14.58376784 -17.09300508 13.16691809 -17.125 11.75 C-17.14820313 10.96109375 -17.17140625 10.1721875 -17.1953125 9.359375 C-16.9828378 6.79268059 -16.28654105 5.2083933 -15 3 C-14.34 3 -13.68 3 -13 3 C-13 2.34 -13 1.68 -13 1 C-11.58344207 0.9727585 -10.16672955 0.95349533 -8.75 0.9375 C-7.56664062 0.92009766 -7.56664062 0.92009766 -6.359375 0.90234375 C-4.09308998 0.99614694 -2.1711105 1.36758937 0 2 C0 1.34 0 0.68 0 0 Z " fill="#FCB718" transform="translate(51,32)"/>
<path d="M0 0 C1 3 1 3 0 6 C-0.66 6 -1.32 6 -2 6 C-2.12375 6.598125 -2.2475 7.19625 -2.375 7.8125 C-3 10 -3 10 -5 13 C-5.99 13 -6.98 13 -8 13 C-8 14.32 -8 15.64 -8 17 C-9.5 18.75 -9.5 18.75 -11 20 C-10.67 20.66 -10.34 21.32 -10 22 C-8.35 20.02 -6.7 18.04 -5 16 C-4.67 16.99 -4.34 17.98 -4 19 C-3.01 19.33 -2.02 19.66 -1 20 C-1 20.66 -1 21.32 -1 22 C-0.34 22 0.32 22 1 22 C0.67 21.01 0.34 20.02 0 19 C0.99 18.34 1.98 17.68 3 17 C3.33 18.65 3.66 20.3 4 22 C3.14277344 22.72445312 2.28554687 23.44890625 1.40234375 24.1953125 C-4.41379964 29.1124815 -10.22681184 34.03237298 -16 39 C-17.15224028 38.07038578 -18.29659176 37.1309875 -19.4375 36.1875 C-20.07558594 35.66542969 -20.71367188 35.14335937 -21.37109375 34.60546875 C-23 33 -23 33 -24 30 C-22.953125 28.4140625 -22.953125 28.4140625 -21.25 26.625 C-13.53393064 18.22855579 -5.97353902 9.75425992 0 0 Z " fill="#FABD2F" transform="translate(75,135)"/>
<path d="M0 0 C0.86625 0.33 1.7325 0.66 2.625 1 C5.95718275 1.98731341 8.55159538 2.16420974 12 2 C12 2.66 12 3.32 12 4 C13.32 4.33 14.64 4.66 16 5 C16.02696365 6.79158489 16.04637917 8.58328473 16.0625 10.375 C16.07410156 11.37273438 16.08570313 12.37046875 16.09765625 13.3984375 C16 16 16 16 15 18 C14.34 18 13.68 18 13 18 C13.33 19.32 13.66 20.64 14 22 C13.01 22 12.02 22 11 22 C11 21.34 11 20.68 11 20 C8.03 20 5.06 20 2 20 C2 19.34 2 18.68 2 18 C0.68 18 -0.64 18 -2 18 C-3.38226016 15.23547967 -3.09525387 12.9538637 -3.0625 9.875 C-3.05347656 8.77929688 -3.04445312 7.68359375 -3.03515625 6.5546875 C-3.02355469 5.71164063 -3.01195312 4.86859375 -3 4 C-2.34 3.67 -1.68 3.34 -1 3 C-0.67 2.01 -0.34 1.02 0 0 Z " fill="#FDB81A" transform="translate(176,33)"/>
<path d="M0 0 C0.33 0.99 0.66 1.98 1 3 C1.66 3 2.32 3 3 3 C3 5.64 3 8.28 3 11 C2.34 11 1.68 11 1 11 C1.04125 11.78375 1.0825 12.5675 1.125 13.375 C1 16 1 16 -1 18 C-3.8203125 18.1953125 -3.8203125 18.1953125 -7.125 18.125 C-8.22070312 18.10695312 -9.31640625 18.08890625 -10.4453125 18.0703125 C-11.28835937 18.04710937 -12.13140625 18.02390625 -13 18 C-13 17.01 -13 16.02 -13 15 C-13.66 15 -14.32 15 -15 15 C-15.6875 13.25 -15.6875 13.25 -16 11 C-14.75 8.75 -14.75 8.75 -13 7 C-12.01 7 -11.02 7 -10 7 C-10 7.66 -10 8.32 -10 9 C-9.34 9 -8.68 9 -8 9 C-8 7.68 -8 6.36 -8 5 C-8.66 4.67 -9.32 4.34 -10 4 C-7.16124653 -0.25813021 -4.8137938 -0.13010254 0 0 Z " fill="#FDB717" transform="translate(50,173)"/>
<path d="M0 0 C1.15224028 0.92961422 2.29659176 1.8690125 3.4375 2.8125 C4.07558594 3.33457031 4.71367187 3.85664062 5.37109375 4.39453125 C7 6 7 6 8 9 C6.70703125 10.9375 6.70703125 10.9375 4.8125 13 C4.20019531 13.680625 3.58789062 14.36125 2.95703125 15.0625 C1.07922774 16.92156295 -0.84767281 18.47284989 -3 20 C-3.495 17.525 -3.495 17.525 -4 15 C-3.34 14.67 -2.68 14.34 -2 14 C-2 14.66 -2 15.32 -2 16 C-1.34 16 -0.68 16 0 16 C0 14.35 0 12.7 0 11 C-0.99 11 -1.98 11 -3 11 C-3 10.34 -3 9.68 -3 9 C-3.99 8.67 -4.98 8.34 -6 8 C-6 10.31 -6 12.62 -6 15 C-7.32 15 -8.64 15 -10 15 C-9.67 16.32 -9.34 17.64 -9 19 C-12.96 19 -16.92 19 -21 19 C-17.21660313 15.16700804 -13.33134703 11.46624971 -9.375 7.8125 C-8.80265625 7.27947266 -8.2303125 6.74644531 -7.640625 6.19726562 C-5.17653282 3.91941297 -2.79781004 1.86520669 0 0 Z " fill="#F9BF3B" transform="translate(166,51)"/>
<path d="M0 0 C0 0.66 0 1.32 0 2 C-0.9590625 2.7115625 -0.9590625 2.7115625 -1.9375 3.4375 C-4.28372963 4.9091365 -4.28372963 4.9091365 -5 8 C-5.66 8 -6.32 8 -7 8 C-7 8.66 -7 9.32 -7 10 C-7.66 10 -8.32 10 -9 10 C-8.67 11.65 -8.34 13.3 -8 15 C-6.68 15.33 -5.36 15.66 -4 16 C-3.67 15.34 -3.34 14.68 -3 14 C-2.34 14 -1.68 14 -1 14 C-1.33 12.68 -1.66 11.36 -2 10 C-1.34 9.67 -0.68 9.34 0 9 C0 9.66 0 10.32 0 11 C0.99 11 1.98 11 3 11 C2.67 9.02 2.34 7.04 2 5 C2.66 5 3.32 5 4 5 C4 4.34 4 3.68 4 3 C4.99 3 5.98 3 7 3 C7.33 3.99 7.66 4.98 8 6 C6.63671875 8.15625 6.63671875 8.15625 4.6875 10.5 C2.66149764 12.96572295 0.77307022 15.34039467 -1 18 C-1.66 18 -2.32 18 -3 18 C-3 18.66 -3 19.32 -3 20 C-4.79296875 21.54296875 -4.79296875 21.54296875 -7.1875 23.1875 C-7.96480469 23.73792969 -8.74210937 24.28835937 -9.54296875 24.85546875 C-12.50997633 26.23755654 -13.92557562 25.94471655 -17 25 C-16.78561664 15.35274865 -10.11729412 7.62948418 -3.48046875 1.14453125 C-2 0 -2 0 0 0 Z " fill="#F8C03A" transform="translate(26,53)"/>
<path d="M0 0 C5.51705301 3.7416184 9.91749319 7.87470295 14.23828125 12.94921875 C15.11033203 13.96435547 15.11033203 13.96435547 16 15 C16.75410156 15.87785156 16.75410156 15.87785156 17.5234375 16.7734375 C19.10488082 18.35886972 19.10488082 18.35886972 22.3125 17.9375 C26.76324426 18.01293634 28.61652605 19.19419233 32 22 C32 22.66 32 23.32 32 24 C30.68 23.67 29.36 23.34 28 23 C28 22.34 28 21.68 28 21 C27.37351563 21.09539063 26.74703125 21.19078125 26.1015625 21.2890625 C25.28429687 21.39992188 24.46703125 21.51078125 23.625 21.625 C22.40683594 21.79902344 22.40683594 21.79902344 21.1640625 21.9765625 C20.44992188 21.98429687 19.73578125 21.99203125 19 22 C18.34 21.34 17.68 20.68 17 20 C16.34 20.99 15.68 21.98 15 23 C14.34 23 13.68 23 13 23 C13.33 27.62 13.66 32.24 14 37 C15.32 37 16.64 37 18 37 C18 37.66 18 38.32 18 39 C20.97 39 23.94 39 27 39 C27 39.66 27 40.32 27 41 C17.3597561 41.56707317 17.3597561 41.56707317 13 38 C10.80610471 34.70915707 10.30645682 32.90732442 10 29 C10.9375 25.625 10.9375 25.625 12 23 C11.195625 22.71125 10.39125 22.4225 9.5625 22.125 C7 21 7 21 6 19 C7.98 19.33 9.96 19.66 12 20 C12 16.4378672 10.579168 13.158336 9 10 C6.3858786 8.03940895 5.2983059 8 2 8 C2.33 6.68 2.66 5.36 3 4 C2.34 4 1.68 4 1 4 C0.67 2.68 0.34 1.36 0 0 Z " fill="#F7C240" transform="translate(160,14)"/>
<path d="M0 0 C0 2.62113708 -0.31292445 4.50935112 -1 7 C0.65 6.67 2.3 6.34 4 6 C4.9375 8.625 4.9375 8.625 5 12 C3.54296875 13.41796875 3.54296875 13.41796875 1.625 14.8125 C-1.26134029 16.96217237 -1.26134029 16.96217237 -2.5859375 20.203125 C-2.69421475 21.76025495 -2.77934881 23.31918897 -2.83984375 24.87890625 C-3.06765637 27.89603431 -4.06662744 29.70859548 -6 32 C-8 32.9375 -8 32.9375 -10 33 C-10.99 32.34 -11.98 31.68 -13 31 C-11.02 31 -9.04 31 -7 31 C-7.020625 30.195625 -7.04125 29.39125 -7.0625 28.5625 C-7 26 -7 26 -6 25 C-5.76518307 22.81707226 -5.58636677 20.62796826 -5.4375 18.4375 C-5.35371094 17.23996094 -5.26992188 16.04242188 -5.18359375 14.80859375 C-5.12300781 13.88175781 -5.06242187 12.95492187 -5 12 C-5.66 12 -6.32 12 -7 12 C-7 12.66 -7 13.32 -7 14 C-11.29 13.67 -15.58 13.34 -20 13 C-19.34 12.34 -18.68 11.68 -18 11 C-16.45337471 11.14086364 -14.91150129 11.33654393 -13.375 11.5625 C-10.66184478 11.78382527 -10.66184478 11.78382527 -8 11 C-4.70647538 7.70119729 -2.33568327 4.01894105 0 0 Z " fill="#F8C246" transform="translate(58,20)"/>
<path d="M0 0 C4.13937592 3.30015998 7.58662205 6.17324411 10 11 C8.47005208 12.23697917 6.94010417 13.47395833 5.41015625 14.7109375 C3.86733563 15.9666391 3.86733563 15.9666391 3 18 C-1.04161955 16.65515286 -3.38678154 14.9494838 -6.3125 11.875 C-7.00988281 11.15054688 -7.70726562 10.42609375 -8.42578125 9.6796875 C-8.94527344 9.12539062 -9.46476563 8.57109375 -10 8 C-9.34 7.67 -8.68 7.34 -8 7 C-7.01 7.33 -6.02 7.66 -5 8 C-4.566875 7.0409375 -4.566875 7.0409375 -4.125 6.0625 C-3 4 -3 4 -1 3 C-0.67 2.01 -0.34 1.02 0 0 Z " fill="#F9C03A" transform="translate(164,156)"/>
<path d="M0 0 C2.25859784 3.38789675 2.05755746 3.49978985 1.4375 7.1875 C1.22224498 9.61922444 1.22224498 9.61922444 2 12 C4.66436999 14.42647982 7.40526151 16.23073101 10.49609375 18.078125 C13 20 13 20 13.84765625 22.734375 C13.92306641 23.85585938 13.92306641 23.85585938 14 25 C12.741875 25.185625 11.48375 25.37125 10.1875 25.5625 C9.47980469 25.66691406 8.77210938 25.77132812 8.04296875 25.87890625 C6 26 6 26 3 25 C1 22 1 22 1 19 C0.01 19.33 -0.98 19.66 -2 20 C-3 15.25 -3 15.25 -3 13 C-2.34 13 -1.68 13 -1 13 C-0.67 8.71 -0.34 4.42 0 0 Z " fill="#FBB71A" transform="translate(192,38)"/>
<path d="M0 0 C3 0 3 0 5.0625 1.9375 C5.48015625 2.38351563 5.8978125 2.82953125 6.328125 3.2890625 C10.01738968 7.06452496 14.06075169 10.48909714 18 14 C17.01 14.495 17.01 14.495 16 15 C15.01 14.67 14.02 14.34 13 14 C13 13.34 13 12.68 13 12 C11.35 11.34 9.7 10.68 8 10 C7.67 10.66 7.34 11.32 7 12 C6.34 11.34 5.68 10.68 5 10 C2.50447516 10.78130071 2.50447516 10.78130071 0 12 C-0.33 12.99 -0.66 13.98 -1 15 C-2.98 12.36 -4.96 9.72 -7 7 C-6.21625 6.401875 -5.4325 5.80375 -4.625 5.1875 C-1.85425677 3.08914751 -1.85425677 3.08914751 0 0 Z " fill="#FABF36" transform="translate(58,51)"/>
<path d="M0 0 C0.66 0.33 1.32 0.66 2 1 C1.34 2.65 0.68 4.3 0 6 C-0.99 5.67 -1.98 5.34 -3 5 C-4.76801263 7.89198814 -4.76801263 7.89198814 -4.5625 11.1875 C-4.376875 11.785625 -4.19125 12.38375 -4 13 C-5 14 -5 14 -7.5625 14.0625 C-8.366875 14.041875 -9.17125 14.02125 -10 14 C-10.33 13.01 -10.66 12.02 -11 11 C-11.99 11 -12.98 11 -14 11 C-14 11.66 -14 12.32 -14 13 C-18.78915206 15.48799892 -23.30770817 15.2635404 -28.5625 15.1875 C-29.41263672 15.18685547 -30.26277344 15.18621094 -31.13867188 15.18554688 C-34.94618938 15.15867028 -38.31768198 15.04383538 -42 14 C-42 13.34 -42 12.68 -42 12 C-41.17757812 12.09539062 -40.35515625 12.19078125 -39.5078125 12.2890625 C-23.92127699 13.83691707 -12.39347921 9.57677939 0 0 Z " fill="#FAC13E" transform="translate(143,70)"/>
<path d="M0 0 C-0.33 1.98 -0.66 3.96 -1 6 C-2.3921875 6.4021875 -2.3921875 6.4021875 -3.8125 6.8125 C-6.76240366 7.91148371 -8.05615186 8.62418561 -10 11 C-9.01 12.485 -9.01 12.485 -8 14 C-8 14.99 -8 15.98 -8 17 C-9.98 16.67 -11.96 16.34 -14 16 C-14.33 16.99 -14.66 17.98 -15 19 C-15.99 19 -16.98 19 -18 19 C-18.99 19.33 -19.98 19.66 -21 20 C-21 19.34 -21 18.68 -21 18 C-20.34 18 -19.68 18 -19 18 C-19 17.01 -19 16.02 -19 15 C-18.34 15 -17.68 15 -17 15 C-16.67 13.68 -16.34 12.36 -16 11 C-15.01 11 -14.02 11 -13 11 C-12.8453125 9.88625 -12.8453125 9.88625 -12.6875 8.75 C-11.91342102 5.65368408 -11.29479243 4.21829935 -9 2 C-5.94602013 0.92842811 -3.25277141 0 0 0 Z " fill="#FDB717" transform="translate(214,148)"/>
<path d="M0 0 C8.9018041 3.05848604 17.48675785 10.71993652 22 19 C22.875 22.5 22.875 22.5 23 25 C20.31143576 26.00821159 18.58296785 26.22736824 15.88671875 25.17578125 C13.89205069 24.16604698 11.9353228 23.11893353 10 22 C12.07553648 21.4465236 13.84365964 21 16 21 C17.0326802 18.21176345 17.04509293 17.1322726 16.0625 14.25 C15.711875 13.5075 15.36125 12.765 15 12 C13.8553125 12.1546875 13.8553125 12.1546875 12.6875 12.3125 C11.3571875 12.1578125 11.3571875 12.1578125 10 12 C8.3125 9.5 8.3125 9.5 7 7 C6.34 7 5.68 7 5 7 C3.375 5.5 3.375 5.5 2 4 C2 4.66 2 5.32 2 6 C1.34 6 0.68 6 0 6 C0 4.02 0 2.04 0 0 Z " fill="#F8C142" transform="translate(56,190)"/>
<path d="M0 0 C-0.21495935 9.67317092 -6.89679647 17.4213724 -13.6171875 23.85546875 C-15 25 -15 25 -16 25 C-16 23.35 -16 21.7 -16 20 C-15.34 19.67 -14.68 19.34 -14 19 C-14 18.34 -14 17.68 -14 17 C-12.68 17.33 -11.36 17.66 -10 18 C-10.99 15.69 -11.98 13.38 -13 11 C-11.68 9.68 -10.36 8.36 -9 7 C-9 7.66 -9 8.32 -9 9 C-8.01 8.34 -7.02 7.68 -6 7 C-5.01 7 -4.02 7 -3 7 C-2.67 5.02 -2.34 3.04 -2 1 C-4.64 1.66 -7.28 2.32 -10 3 C-6.46873184 -0.69178035 -5.02635024 -1.19045137 0 0 Z " fill="#F9BF37" transform="translate(216,147)"/>
<path d="M0 0 C0.33 0 0.66 0 1 0 C0.97679688 0.68707031 0.95359375 1.37414062 0.9296875 2.08203125 C0.91164063 2.98308594 0.89359375 3.88414062 0.875 4.8125 C0.85179688 5.70582031 0.82859375 6.59914062 0.8046875 7.51953125 C0.81714173 10.25402714 0.81714173 10.25402714 3 13 C1.68 13 0.36 13 -1 13 C0.39759905 16.54518884 0.39759905 16.54518884 2 20 C1.67 20.66 1.34 21.32 1 22 C1.99 22.33 2.98 22.66 4 23 C4.33 24.65 4.66 26.3 5 28 C0.37439359 23.51044084 0.37439359 23.51044084 -1.38671875 21.109375 C-4.02770397 17.33361583 -4.02770397 17.33361583 -8.08984375 15.625 C-10.06303175 15.68209043 -12.03280499 15.83606708 -14 16 C-14.66 15.34 -15.32 14.68 -16 14 C-10.06 13.505 -10.06 13.505 -4 13 C-3.34 11.02 -2.68 9.04 -2 7 C-1.34 7 -0.68 7 0 7 C0 4.69 0 2.38 0 0 Z " fill="#F7BF3B" transform="translate(53,177)"/>
<path d="M0 0 C0.66 0 1.32 0 2 0 C2.66 0.66 3.32 1.32 4 2 C4.66 2 5.32 2 6 2 C6.66 3.98 7.32 5.96 8 8 C11.63 8 15.26 8 19 8 C19 7.01 19 6.02 19 5 C22.875 6.75 22.875 6.75 24 9 C23.401875 9.12375 22.80375 9.2475 22.1875 9.375 C19.73768652 9.95475985 19.73768652 9.95475985 17 12 C17.33 13.98 17.66 15.96 18 18 C10.05806436 14.63995031 4.94646213 7.7794151 0 1 C0 0.67 0 0.34 0 0 Z " fill="#F9C64E" transform="translate(187,55)"/>
<path d="M0 0 C4.78756196 0.368274 8.05438736 1.25002755 12 4 C11.34 4.66 10.68 5.32 10 6 C10 5.34 10 4.68 10 4 C7.69 4 5.38 4 3 4 C3 5.32 3 6.64 3 8 C3.99 8.33 4.98 8.66 6 9 C7 11 7 11 8 13 C11.30788152 16.76730951 14.42027164 18.9763991 19 21 C19 21.99 19 22.98 19 24 C10.6649813 21.47423676 4.5175542 14.14641342 0 7 C-1 3.5 -1 3.5 -1 1 C-0.67 0.67 -0.34 0.34 0 0 Z " fill="#F5C65A" transform="translate(147,9)"/>
<path d="M0 0 C5.41538462 -0.36923077 5.41538462 -0.36923077 8.375 1.5 C8.91125 1.995 9.4475 2.49 10 3 C7.36 2.67 4.72 2.34 2 2 C2 2.99 2 3.98 2 5 C3.65 4.67 5.3 4.34 7 4 C7.79953138 7.28696233 8.09658936 8.71023192 7 12 C8.98 11.67 10.96 11.34 13 11 C12.34 12.65 11.68 14.3 11 16 C11.66 16 12.32 16 13 16 C12.67 16.99 12.34 17.98 12 19 C7.28154887 15.28778917 2.71403022 11.46473653 0 6 C-0.3125 2.5625 -0.3125 2.5625 0 0 Z " fill="#F6C349" transform="translate(7,147)"/>
<path d="M0 0 C0.99 0.66 1.98 1.32 3 2 C3.1875 4.625 3.1875 4.625 3 7 C1.68 6.67 0.36 6.34 -1 6 C-1 7.32 -1 8.64 -1 10 C-1.66 10 -2.32 10 -3 10 C-3.33 10.99 -3.66 11.98 -4 13 C-5.9375 12.3125 -5.9375 12.3125 -8 11 C-8.75 8.375 -8.75 8.375 -9 6 C-8.34 6 -7.68 6 -7 6 C-7 5.34 -7 4.68 -7 4 C-6.34 4 -5.68 4 -5 4 C-5 3.34 -5 2.68 -5 2 C-4.01 1.67 -3.02 1.34 -2 1 C-1.34 1.33 -0.68 1.66 0 2 C0 1.34 0 0.68 0 0 Z " fill="#FDB716" transform="translate(26,57)"/>
<path d="M0 0 C5.24404905 0.17480164 5.24404905 0.17480164 8 1 C10.3125 3.875 10.3125 3.875 12 7 C13.62351109 8.79394446 13.62351109 8.79394446 15 10 C13.71034824 11.37562854 12.37310707 12.70766393 11 14 C10.34 14 9.68 14 9 14 C8 11 8 11 8 10 C7.01 10 6.02 10 5 10 C4.67 7.69 4.34 5.38 4 3 C3.01 3.495 3.01 3.495 2 4 C1.34 3.67 0.68 3.34 0 3 C0 2.01 0 1.02 0 0 Z " fill="#FDB614" transform="translate(9,149)"/>
<path d="M0 0 C2 3 2 3 2 6 C0.68 6 -0.64 6 -2 6 C-1.67 7.32 -1.34 8.64 -1 10 C-4.96 10 -8.92 10 -13 10 C-4.84931507 1.61643836 -4.84931507 1.61643836 0 0 Z " fill="#FAB91F" transform="translate(158,60)"/>
<path d="M0 0 C1.32 0.33 2.64 0.66 4 1 C3.34 1.66 2.68 2.32 2 3 C2.04125 4.0725 2.0825 5.145 2.125 6.25 C1.97439641 10.76810766 0.87220089 12.5693156 -2 16 C-5.27093273 18.13041013 -7.8964583 18.21675099 -11.75 18.125 C-12.73484375 18.10695312 -13.7196875 18.08890625 -14.734375 18.0703125 C-15.48203125 18.04710937 -16.2296875 18.02390625 -17 18 C-17 17.01 -17 16.02 -17 15 C-13.04 15 -9.08 15 -5 15 C-5 14.01 -5 13.02 -5 12 C-4.34 11.34 -3.68 10.68 -3 10 C-2.01 10 -1.02 10 0 10 C0 6.7 0 3.4 0 0 Z " fill="#F3CD69" transform="translate(191,176)"/>
<path d="M0 0 C0 1.65 0 3.3 0 5 C-0.33 3.68 -0.66 2.36 -1 1 C-2.96756452 1.03122943 -2.96756452 1.03122943 -5 2 C-5.70381157 3.98723268 -6.3711811 5.98777953 -7 8 C-7.99 8.33 -8.98 8.66 -10 9 C-10.66 9.66 -11.32 10.32 -12 11 C-12.33 10.34 -12.66 9.68 -13 9 C-14.32 10.32 -15.64 11.64 -17 13 C-17.66 12.67 -18.32 12.34 -19 12 C-7.18932656 -2.39644219 -7.18932656 -2.39644219 0 0 Z " fill="#F7C859" transform="translate(78,7)"/>
<path d="M0 0 C1.32 0.33 2.64 0.66 4 1 C4 2.32 4 3.64 4 5 C1.69 4.67 -0.62 4.34 -3 4 C-3 4.99 -3 5.98 -3 7 C-1.68 7 -0.36 7 1 7 C1 7.66 1 8.32 1 9 C-0.32 9.33 -1.64 9.66 -3 10 C-3 10.66 -3 11.32 -3 12 C-3.5775 11.814375 -4.155 11.62875 -4.75 11.4375 C-7.20692525 10.95976454 -8.64397534 11.24270636 -11 12 C-10.6875 10.0625 -10.6875 10.0625 -10 8 C-9.01 7.67 -8.02 7.34 -7 7 C-6.34 7.33 -5.68 7.66 -5 8 C-4.67 6.35 -4.34 4.7 -4 3 C-2.68 2.67 -1.36 2.34 0 2 C0 1.34 0 0.68 0 0 Z " fill="#FDB614" transform="translate(165,194)"/>
<path d="M0 0 C0.99 0.33 1.98 0.66 3 1 C4.1875 4.0625 4.1875 4.0625 5 7 C3.3125 8.5625 3.3125 8.5625 1 10 C-1.75 9.6875 -1.75 9.6875 -4 9 C-4.33 6.69 -4.66 4.38 -5 2 C-4.360625 1.855625 -3.72125 1.71125 -3.0625 1.5625 C-1.02454854 1.18992819 -1.02454854 1.18992819 0 0 Z " fill="#FAB81B" transform="translate(208,63)"/>
<path d="M0 0 C0.66 0 1.32 0 2 0 C2 0.66 2 1.32 2 2 C1.34 2 0.68 2 0 2 C-0.66 6.29 -1.32 10.58 -2 15 C-1.34 15 -0.68 15 0 15 C0 15.99 0 16.98 0 18 C0.99 18 1.98 18 3 18 C1.70700306 20.88437779 0.34058637 22.87219421 -2 25 C-2.33 23.68 -2.66 22.36 -3 21 C-2.01 21 -1.02 21 0 21 C-0.66 19.35 -1.32 17.7 -2 16 C-2.763125 16.495 -3.52625 16.99 -4.3125 17.5 C-7 19 -7 19 -10 19 C-9.01 18.34 -8.02 17.68 -7 17 C-5.27971589 15.68083256 -5.27971589 15.68083256 -4 14 C-3.80944677 10.37268468 -3.80944677 10.37268468 -4.046875 8.00390625 C-3.96676537 4.57921954 -2.14196238 2.51995574 0 0 Z " fill="#F5CA64" transform="translate(36,33)"/>
<path d="M0 0 C2.4375 0.8125 2.4375 0.8125 5 2 C5.33 2.99 5.66 3.98 6 5 C6.99 5.33 7.98 5.66 9 6 C9.33 5.34 9.66 4.68 10 4 C10.12375 4.94875 10.2475 5.8975 10.375 6.875 C10.71687177 10.08667191 10.71687177 10.08667191 13 12 C14.9369796 14.4018547 16.01174127 16.0352238 17 19 C17.66 19.33 18.32 19.66 19 20 C19.625 23.0625 19.625 23.0625 20 26 C16.87234506 23.1871415 14.63310719 19.74495332 12.25 16.3125 C8.80598928 11.40614637 5.25812352 6.7628109 1.1796875 2.35546875 C0 1 0 1 0 0 Z " fill="#F6CD6E" transform="translate(58,66)"/>
<path d="M0 0 C-2.37859551 1.51662741 -3.47840138 2.10467455 -6.296875 1.5390625 C-7.10640625 1.23742187 -7.9159375 0.93578125 -8.75 0.625 C-16.98666032 -2.08442774 -23.65481643 -0.91528803 -32 1 C-32 0.34 -32 -0.32 -32 -1 C-22.33997156 -7.26596439 -10.0653304 -3.61319553 0 0 Z " fill="#F2C862" transform="translate(130,143)"/>
<path d="M0 0 C0 0.99 0 1.98 0 3 C-4.78915206 5.48799892 -9.30770817 5.2635404 -14.5625 5.1875 C-15.41263672 5.18685547 -16.26277344 5.18621094 -17.13867188 5.18554688 C-20.94618938 5.15867028 -24.31768198 5.04383538 -28 4 C-28 3.34 -28 2.68 -28 2 C-27.17757812 2.09539062 -26.35515625 2.19078125 -25.5078125 2.2890625 C-16.23561256 3.20985834 -8.71484335 0 0 0 Z " fill="#F5CE71" transform="translate(129,80)"/>
<path d="M0 0 C0.66 0.66 1.32 1.32 2 2 C1.01 3.485 1.01 3.485 0 5 C0.33652369 7.51599015 0.33652369 7.51599015 1 10 C1 10.99 1 11.98 1 13 C-1.3125 13.25 -1.3125 13.25 -4 13 C-5.875 11.1875 -5.875 11.1875 -7 9 C-5.87994369 5.63983107 -4.62788203 4.30935087 -2 2 C-1.34 2 -0.68 2 0 2 C0 1.34 0 0.68 0 0 Z " fill="#F8B822" transform="translate(60,158)"/>
<path d="M0 0 C0.66 0 1.32 0 2 0 C1.18279862 5.38879168 -2.87234419 7.86267919 -7 11 C-10.3125 13 -10.3125 13 -13 14 C-13.99 13.67 -14.98 13.34 -16 13 C-16 11.35 -16 9.7 -16 8 C-15.67 9.32 -15.34 10.64 -15 12 C-14.34 12 -13.68 12 -13 12 C-13 11.34 -13 10.68 -13 10 C-11.35 10 -9.7 10 -8 10 C-7.896875 9.401875 -7.79375 8.80375 -7.6875 8.1875 C-6.88683897 5.63994217 -6.13942468 4.58475902 -4 3 C-2.68 3 -1.36 3 0 3 C0 2.01 0 1.02 0 0 Z " fill="#F7CA6A" transform="translate(163,205)"/>
<path d="M0 0 C2.51480797 2.51480797 2.28684241 4.13103994 2.32226562 7.5703125 C2.31904297 8.28960937 2.31582031 9.00890625 2.3125 9.75 C2.32861328 10.45382813 2.34472656 11.15765625 2.36132812 11.8828125 C2.36579661 16.69090173 1.43049375 19.74972032 -1 24 C-1.309375 25.093125 -1.61875 26.18625 -1.9375 27.3125 C-2.288125 28.199375 -2.63875 29.08625 -3 30 C-5.125 30.875 -5.125 30.875 -7 31 C-5.45766963 27.01564656 -3.7079215 23.15131853 -1.90234375 19.28125 C-0.10536779 14.73824583 0.11585776 10.54305622 0.0625 5.6875 C0.05347656 4.61886719 0.04445313 3.55023438 0.03515625 2.44921875 C0.02355469 1.64097656 0.01195313 0.83273438 0 0 Z " fill="#F4C95F" transform="translate(83,104)"/>
<path d="M0 0 C1 3 1 3 0 6 C-0.66 6 -1.32 6 -2 6 C-2.12375 6.598125 -2.2475 7.19625 -2.375 7.8125 C-3 10 -3 10 -5 13 C-5.99 13 -6.98 13 -8 13 C-8 14.32 -8 15.64 -8 17 C-10 19.25 -10 19.25 -12 21 C-12.99 20.67 -13.98 20.34 -15 20 C-14.25234375 19.05898437 -13.5046875 18.11796875 -12.734375 17.1484375 C-11.73946379 15.89071956 -10.74467883 14.63290173 -9.75 13.375 C-9.25886719 12.75753906 -8.76773438 12.14007813 -8.26171875 11.50390625 C-5.31695237 7.77386883 -2.5793722 3.99188555 0 0 Z " fill="#F5CA67" transform="translate(75,135)"/>
<path d="M0 0 C0.66 0.33 1.32 0.66 2 1 C0.6875 3.9375 0.6875 3.9375 -1 7 C-1.99 7.33 -2.98 7.66 -4 8 C-4.33 8.99 -4.66 9.98 -5 11 C-5.66 11 -6.32 11 -7 11 C-7 11.99 -7 12.98 -7 14 C-7.66 14 -8.32 14 -9 14 C-9.103125 14.639375 -9.20625 15.27875 -9.3125 15.9375 C-9.539375 16.618125 -9.76625 17.29875 -10 18 C-10.99 18.33 -11.98 18.66 -13 19 C-13 19.66 -13 20.32 -13 21 C-13.66 21 -14.32 21 -15 21 C-11.33437791 13.18359996 -5.71025809 6.40663102 0 0 Z " fill="#F5D078" transform="translate(202,152)"/>
<path d="M0 0 C0.5775 0.226875 1.155 0.45375 1.75 0.6875 C1.440625 1.285625 1.13125 1.88375 0.8125 2.5 C-0.35209704 4.77706772 -0.35209704 4.77706772 -1.25 7.6875 C-2.9 7.6875 -4.55 7.6875 -6.25 7.6875 C-6.25 8.3475 -6.25 9.0075 -6.25 9.6875 C-6.91 9.6875 -7.57 9.6875 -8.25 9.6875 C-8.25 8.0375 -8.25 6.3875 -8.25 4.6875 C-7.59 4.6875 -6.93 4.6875 -6.25 4.6875 C-6.25 4.0275 -6.25 3.3675 -6.25 2.6875 C-3.02697842 -0.42041367 -3.02697842 -0.42041367 0 0 Z " fill="#F9B71F" transform="translate(156.25,207.3125)"/>
<path d="M0 0 C0.474375 0.639375 0.94875 1.27875 1.4375 1.9375 C4.66148619 4.53241571 6.79421499 4.44608937 10.80859375 4.73046875 C13.78602358 5.0966767 15.68659275 6.12035661 18 8 C18.33 8.99 18.66 9.98 19 11 C18.34 11 17.68 11 17 11 C16.67 10.34 16.34 9.68 16 9 C13.36 9 10.72 9 8 9 C8 8.34 8 7.68 8 7 C6.35 7 4.7 7 3 7 C2.67 6.01 2.34 5.02 2 4 C1.34 4 0.68 4 0 4 C0 2.68 0 1.36 0 0 Z " fill="#F5CC68" transform="translate(34,165)"/>
<path d="M0 0 C2.475 0.495 2.475 0.495 5 1 C4.67 2.65 4.34 4.3 4 6 C4.66 6 5.32 6 6 6 C6 5.34 6 4.68 6 4 C6.99 4.33 7.98 4.66 9 5 C9 5.66 9 6.32 9 7 C9.66 7 10.32 7 11 7 C10.67 7.66 10.34 8.32 10 9 C4.55072464 10.27536232 4.55072464 10.27536232 2 9 C1.4375 7.25 1.4375 7.25 1 5 C0.814375 4.0925 0.62875 3.185 0.4375 2.25 C0.293125 1.5075 0.14875 0.765 0 0 Z " fill="#FCB715" transform="translate(52,190)"/>
<path d="M0 0 C2.25859784 3.38789675 2.05755746 3.49978985 1.4375 7.1875 C1.22307654 9.61114079 1.22307654 9.61114079 2 12 C4.6504405 14.52996593 7.40184741 16.41496101 10.49609375 18.37109375 C13 20 13 20 14 22 C11.0625 21.1875 11.0625 21.1875 8 20 C7.67 19.01 7.34 18.02 7 17 C5.14255793 16.38932856 5.14255793 16.38932856 3 16 C1.68 15.34 0.36 14.68 -1 14 C-0.67 9.38 -0.34 4.76 0 0 Z " fill="#F4CD66" transform="translate(192,38)"/>
<path d="M0 0 C1.4540625 0.0309375 1.4540625 0.0309375 2.9375 0.0625 C-0.62954403 5.46822653 -4.19346591 10.86693993 -8.0625 16.0625 C-8.3925 16.0625 -8.7225 16.0625 -9.0625 16.0625 C-9.0625 14.4125 -9.0625 12.7625 -9.0625 11.0625 C-8.4025 11.0625 -7.7425 11.0625 -7.0625 11.0625 C-7.0625 10.4025 -7.0625 9.7425 -7.0625 9.0625 C-6.4025 9.0625 -5.7425 9.0625 -5.0625 9.0625 C-5.3925 7.0825 -5.7225 5.1025 -6.0625 3.0625 C-4.7425 3.3925 -3.4225 3.7225 -2.0625 4.0625 C-2.0625 3.4025 -2.0625 2.7425 -2.0625 2.0625 C-2.7225 1.7325 -3.3825 1.4025 -4.0625 1.0625 C-3.0625 0.0625 -3.0625 0.0625 0 0 Z " fill="#F5C54C" transform="translate(158.0625,73.9375)"/>
<path d="M0 0 C-0.33 1.98 -0.66 3.96 -1 6 C-2.98 6.66 -4.96 7.32 -7 8 C-7 7.01 -7 6.02 -7 5 C-8.65 5.66 -10.3 6.32 -12 7 C-10.9375 4.625 -10.9375 4.625 -9 2 C-5.92098654 0.86562662 -3.29342412 0 0 0 Z " fill="#F6BA2D" transform="translate(214,148)"/>
<path d="M0 0 C0.33 0 0.66 0 1 0 C1.66 3.96 2.32 7.92 3 12 C4.32 12 5.64 12 7 12 C7 12.66 7 13.32 7 14 C9.97 14 12.94 14 16 14 C16 14.66 16 15.32 16 16 C6.3597561 16.56707317 6.3597561 16.56707317 2 13 C-0.4851924 9.2722114 -1.38440535 6.08677188 -0.5625 1.625 C-0.376875 1.08875 -0.19125 0.5525 0 0 Z " fill="#F3CB6B" transform="translate(171,39)"/>
<path d="M0 0 C0.49940808 6.11774896 -0.75099398 9.02495953 -4 14 C-4.33 14 -4.66 14 -5 14 C-5.08114106 12.22992286 -5.13925505 10.45877902 -5.1875 8.6875 C-5.22230469 7.70136719 -5.25710937 6.71523437 -5.29296875 5.69921875 C-5 3 -5 3 -3.61328125 1.14453125 C-2 0 -2 0 0 0 Z " fill="#F6C03B" transform="translate(77,8)"/>
<path d="M0 0 C1.32 0 2.64 0 4 0 C3.67 3.3 3.34 6.6 3 10 C3.66 10.33 4.32 10.66 5 11 C5 12.32 5 13.64 5 15 C5.66 15 6.32 15 7 15 C7 15.99 7 16.98 7 18 C4.63140888 17.05256355 3.26826869 16.41771942 1.87109375 14.2421875 C0.8502782 11.61461742 0.83274856 9.68233854 0.9375 6.875 C1.13916795 3.29653194 1.13916795 3.29653194 0 0 Z " fill="#F5CD6A" transform="translate(30,173)"/>
<path d="M0 0 C0.33 0.66 0.66 1.32 1 2 C0.01 2.495 0.01 2.495 -1 3 C-1.73075648 5.3140622 -2.40138258 7.64828869 -3 10 C-1.68 10 -0.36 10 1 10 C1 10.99 1 11.98 1 13 C0.01 13.33 -0.98 13.66 -2 14 C-2.33 14.66 -2.66 15.32 -3 16 C-3.99 15.67 -4.98 15.34 -6 15 C-5.38958946 5.3386745 -5.38958946 5.3386745 -2 1 C-1.34 0.67 -0.68 0.34 0 0 Z " fill="#F8C654" transform="translate(175,172)"/>
<path d="M0 0 C0.66 1.32 1.32 2.64 2 4 C0.37660195 5.70884005 -1.29319053 7.37446717 -3 9 C-3.66 9 -4.32 9 -5 9 C-5.33 9.99 -5.66 10.98 -6 12 C-6.66 12 -7.32 12 -8 12 C-7.62403791 9.21788056 -7.32681541 7.4120716 -5.5625 5.1875 C-4 4 -4 4 -2 4 C-1.34 2.68 -0.68 1.36 0 0 Z " fill="#FBB817" transform="translate(65,15)"/>
<path d="M0 0 C-0.33 1.98 -0.66 3.96 -1 6 C-2.65 6.33 -4.3 6.66 -6 7 C-6.33 5.02 -6.66 3.04 -7 1 C-4.53721199 -0.231394 -2.7204945 -0.07159196 0 0 Z " fill="#FEBE2A" transform="translate(85,78)"/>
<path d="M0 0 C0.66 0 1.32 0 2 0 C2.58267717 9.90551181 2.58267717 9.90551181 -1 14 C-3 14.9375 -3 14.9375 -5 15 C-5.99 14.34 -6.98 13.68 -8 13 C-6.02 13 -4.04 13 -2 13 C-2.020625 12.195625 -2.04125 11.39125 -2.0625 10.5625 C-2 8 -2 8 -1 7 C-0.63239269 4.67182036 -0.29758419 2.3381615 0 0 Z " fill="#F5C85D" transform="translate(53,38)"/>
<path d="M0 0 C1.15224028 0.92961422 2.29659176 1.8690125 3.4375 2.8125 C4.39462891 3.59560547 4.39462891 3.59560547 5.37109375 4.39453125 C7 6 7 6 8 9 C7.01 9.99 6.02 10.98 5 12 C4.34 9.69 3.68 7.38 3 5 C0.36 5 -2.28 5 -5 5 C-3.35 3.35 -1.7 1.7 0 0 Z " fill="#F7D487" transform="translate(166,51)"/>
<path d="M0 0 C1 3 1 3 0.875 6.5625 C0.80256667 10.91654808 1.89119845 14.59262139 3.24609375 18.703125 C3.93066323 20.78875637 4.49556363 22.86471596 5 25 C4.01 25 3.02 25 2 25 C-0.42416959 17.6697729 -3.68287633 7.36575267 0 0 Z " fill="#F0CC69" transform="translate(141,106)"/>
<path d="M0 0 C1.32 1.32 2.64 2.64 4 4 C3.34 5.65 2.68 7.3 2 9 C-1.875 7.25 -1.875 7.25 -3 5 C-1.5625 2.375 -1.5625 2.375 0 0 Z " fill="#FCB814" transform="translate(70,203)"/>
<path d="M0 0 C0.33 1.32 0.66 2.64 1 4 C-1.97 6.475 -1.97 6.475 -5 9 C-4.34 10.98 -3.68 12.96 -3 15 C-4.65 13.68 -6.3 12.36 -8 11 C-6.52670958 5.99081256 -3.72484762 3.48192278 0 0 Z " fill="#F6D583" transform="translate(59,156)"/>
<path d="M0 0 C5.40489519 1.52012677 8.98492628 5.27385218 13 9 C12.01 9.33 11.02 9.66 10 10 C9.34 9.67 8.68 9.34 8 9 C8 8.34 8 7.68 8 7 C7.236875 6.95875 6.47375 6.9175 5.6875 6.875 C3 6 3 6 1.1875 2.9375 C0.795625 1.968125 0.40375 0.99875 0 0 Z " fill="#F6CB62" transform="translate(17,150)"/>
<path d="M0 0 C0.66 0.33 1.32 0.66 2 1 C1.67 1.99 1.34 2.98 1 4 C1 5.32 1 6.64 1 8 C-1.97 8 -4.94 8 -8 8 C-5.33333333 5.33333333 -2.66666667 2.66666667 0 0 Z " fill="#F9C85E" transform="translate(153,62)"/>
<path d="M0 0 C8.44646925 6.15034169 8.44646925 6.15034169 12 10 C11.67 10.66 11.34 11.32 11 12 C10.5875 11.505 10.175 11.01 9.75 10.5 C7.87797662 8.56613908 7.87797662 8.56613908 4 9 C3.34 8.67 2.68 8.34 2 8 C2.33 6.68 2.66 5.36 3 4 C2.34 4 1.68 4 1 4 C0.67 2.68 0.34 1.36 0 0 Z " fill="#F7CF71" transform="translate(160,14)"/>
<path d="M0 0 C5.41538462 -0.36923077 5.41538462 -0.36923077 8.375 1.5 C8.91125 1.995 9.4475 2.49 10 3 C7.36 2.67 4.72 2.34 2 2 C2 2.99 2 3.98 2 5 C2.66 5 3.32 5 4 5 C3.34 6.32 2.68 7.64 2 9 C-0.29013653 5.5647952 -0.17842973 4.014669 0 0 Z " fill="#F4D076" transform="translate(7,147)"/>
<path d="M0 0 C0 0.66 0 1.32 0 2 C-0.639375 2.474375 -1.27875 2.94875 -1.9375 3.4375 C-4.28372963 4.9091365 -4.28372963 4.9091365 -5 8 C-5.66 8 -6.32 8 -7 8 C-7 8.66 -7 9.32 -7 10 C-7.66 10 -8.32 10 -9 10 C-9 10.99 -9 11.98 -9 13 C-9.99 13 -10.98 13 -12 13 C-10.66182195 9.02031425 -8.99662286 6.61251238 -6 3.6875 C-5.29875 2.99011719 -4.5975 2.29273438 -3.875 1.57421875 C-2 0 -2 0 0 0 Z " fill="#F6D282" transform="translate(26,53)"/>
<path d="M0 0 C0.66 0.33 1.32 0.66 2 1 C-2.21028351 6.2724523 -5.91410189 10.01915194 -12 13 C-10.44997253 9.11602311 -7.99523379 6.97020381 -4.875 4.25 C-3.96492187 3.45078125 -3.05484375 2.6515625 -2.1171875 1.828125 C-1.06917969 0.92320312 -1.06917969 0.92320312 0 0 Z " fill="#F6D78D" transform="translate(167,188)"/>
<path d="M0 0 C0.33 0.66 0.66 1.32 1 2 C1.66 2 2.32 2 3 2 C3.66 4.31 4.32 6.62 5 9 C0.56541027 7.6062718 -1.87378374 5.39417765 -5 2 C-2.525 2.495 -2.525 2.495 0 3 C0 2.01 0 1.02 0 0 Z " fill="#F7C44D" transform="translate(25,164)"/>
<path d="M0 0 C-0.75 6.75 -0.75 6.75 -3 9 C-3.125 3.25 -3.125 3.25 -2 1 C-4.64 1.66 -7.28 2.32 -10 3 C-6.46873184 -0.69178035 -5.02635024 -1.19045137 0 0 Z " fill="#F3CD6E" transform="translate(216,147)"/>
<path d="M0 0 C2 1 2 1 3 3 C2.01 4.32 1.02 5.64 0 7 C-0.33 6.34 -0.66 5.68 -1 5 C-2.32 6.32 -3.64 7.64 -5 9 C-5.66 8.67 -6.32 8.34 -7 8 C-4.69 5.36 -2.38 2.72 0 0 Z " fill="#F7CB69" transform="translate(66,11)"/>
<path d="M0 0 C10.15317287 -0.63019694 10.15317287 -0.63019694 13.6875 2 C14.120625 2.66 14.55375 3.32 15 4 C14.67 4.99 14.34 5.98 14 7 C13.319375 6.175 12.63875 5.35 11.9375 4.5 C8.30902036 1.41193222 6.6220269 1.73837584 2 2 C1.34 1.34 0.68 0.68 0 0 Z " fill="#F4CD6E" transform="translate(37,191)"/>
<path d="M0 0 C0.66 0.99 1.32 1.98 2 3 C0.88333826 6.34998521 0.25305075 6.79340222 -2.5625 8.6875 C-3.52349609 9.34298828 -3.52349609 9.34298828 -4.50390625 10.01171875 C-4.99761719 10.33785156 -5.49132812 10.66398438 -6 11 C-6 9.68 -6 8.36 -6 7 C-5.34 7 -4.68 7 -4 7 C-4.33 6.01 -4.66 5.02 -5 4 C-3.02 4.495 -3.02 4.495 -1 5 C-1.33 4.01 -1.66 3.02 -2 2 C-1.34 1.34 -0.68 0.68 0 0 Z " fill="#F8C451" transform="translate(77,152)"/>
<path d="M0 0 C6.53682343 0.61668146 6.53682343 0.61668146 8.8125 2.5 C9.204375 2.995 9.59625 3.49 10 4 C10.66 4.33 11.32 4.66 12 5 C11.34 6.32 10.68 7.64 10 9 C8.33043913 7.69118353 6.66441696 6.37785174 5 5.0625 C4.071875 4.33160156 3.14375 3.60070312 2.1875 2.84765625 C1.465625 2.23792969 0.74375 1.62820312 0 1 C0 0.67 0 0.34 0 0 Z " fill="#F5C857" transform="translate(140,152)"/>
<path d="M0 0 C3.3 0.33 6.6 0.66 10 1 C9.67 1.99 9.34 2.98 9 4 C8.34 4 7.68 4 7 4 C7 6.64 7 9.28 7 12 C6.67 12 6.34 12 6 12 C6 9.36 6 6.72 6 4 C5.195625 3.71125 4.39125 3.4225 3.5625 3.125 C1 2 1 2 0 0 Z " fill="#F6C041" transform="translate(166,33)"/>
<path d="M0 0 C2.52259061 1.97420135 2.9929808 2.96745642 3.6875 6.1875 C3.790625 7.115625 3.89375 8.04375 4 9 C-0.05431692 10.15837626 -2.21812119 9.83691257 -6 8 C-2.94736336 7.01879536 -1.05263664 7.01879536 2 8 C2 6.68 2 5.36 2 4 C1.34 4 0.68 4 0 4 C0 2.68 0 1.36 0 0 Z " fill="#F1D074" transform="translate(75,206)"/>
<path d="M0 0 C4.93054827 2.71683272 9.46284362 5.66657898 14 9 C12.68 9.33 11.36 9.66 10 10 C10 9.34 10 8.68 10 8 C9.05125 7.7525 8.1025 7.505 7.125 7.25 C4 6 4 6 2.625 3.875 C2.315625 2.946875 2.315625 2.946875 2 2 C1.34 2 0.68 2 0 2 C0 1.34 0 0.68 0 0 Z " fill="#F4CD6C" transform="translate(76,66)"/>
<path d="M0 0 C2.4375 0.8125 2.4375 0.8125 5 2 C5.33 2.99 5.66 3.98 6 5 C6.99 5.33 7.98 5.66 9 6 C9.33 5.34 9.66 4.68 10 4 C10.33 6.31 10.66 8.62 11 11 C7.584241 9.55661511 5.63973737 7.75105832 3.25 4.9375 C2.63640625 4.22464844 2.0228125 3.51179688 1.390625 2.77734375 C0 1 0 1 0 0 Z " fill="#F6C860" transform="translate(58,66)"/>
<path d="M0 0 C1.65 0 3.3 0 5 0 C5 0.66 5 1.32 5 2 C5.99 2 6.98 2 8 2 C8 2.66 8 3.32 8 4 C4.62182575 4.84454356 2.32534757 5.10844919 -1 4 C-0.67 2.68 -0.34 1.36 0 0 Z " fill="#F8BD3B" transform="translate(40,50)"/>
<path d="M0 0 C1.65 0 3.3 0 5 0 C5 2.31 5 4.62 5 7 C4.01 7.495 4.01 7.495 3 8 C2.01 7.34 1.02 6.68 0 6 C1.32 5.67 2.64 5.34 4 5 C4 4.34 4 3.68 4 3 C2.68 3.33 1.36 3.66 0 4 C-0.33 3.34 -0.66 2.68 -1 2 C-0.67 1.34 -0.34 0.68 0 0 Z " fill="#FCB92A" transform="translate(162,198)"/>
<path d="M0 0 C1.65 0.33 3.3 0.66 5 1 C4.67 2.32 4.34 3.64 4 5 C2.02 5 0.04 5 -2 5 C-2 4.01 -2 3.02 -2 2 C-1.34 2 -0.68 2 0 2 C0 1.34 0 0.68 0 0 Z " fill="#FAB821" transform="translate(13,72)"/>
<path d="M0 0 C5.67177385 -0.45374191 8.5975268 0.34916857 13 4 C13 4.66 13 5.32 13 6 C11.68 5.67 10.36 5.34 9 5 C9 4.34 9 3.68 9 3 C8.071875 2.87625 7.14375 2.7525 6.1875 2.625 C3 2 3 2 0 0 Z " fill="#F6CD70" transform="translate(179,32)"/>
<path d="M0 0 C2.66735273 2.48952921 4.55746343 4.63408134 6 8 C5.01 8 4.02 8 3 8 C2.67 8.99 2.34 9.98 2 11 C1.34 11 0.68 11 0 11 C-0.33 10.01 -0.66 9.02 -1 8 C-0.67 7.360625 -0.34 6.72125 0 6.0625 C1.22866351 4.03474079 1.22866351 4.03474079 0.625 1.75 C0.41875 1.1725 0.2125 0.595 0 0 Z " fill="#F9C14A" transform="translate(148,135)"/>
<path d="M0 0 C0.66 0 1.32 0 2 0 C2 0.99 2 1.98 2 3 C1.34 3 0.68 3 0 3 C-0.103125 3.639375 -0.20625 4.27875 -0.3125 4.9375 C-0.539375 5.618125 -0.76625 6.29875 -1 7 C-1.99 7.33 -2.98 7.66 -4 8 C-4 8.66 -4 9.32 -4 10 C-4.66 10 -5.32 10 -6 10 C-4.34643078 6.41726669 -2.32019297 3.19026533 0 0 Z " fill="#F2CA55" transform="translate(193,163)"/>
<path d="M0 0 C1 2 1 2 0.8125 3.875 C-0.23154709 6.60558469 -1.85215669 8.0600125 -4 10 C-4.99 9.67 -5.98 9.34 -7 9 C-4.69 6.03 -2.38 3.06 0 0 Z " fill="#F7D077" transform="translate(67,146)"/>
<path d="M0 0 C0.99 0 1.98 0 3 0 C3 1.65 3 3.3 3 5 C1.125 6.0625 1.125 6.0625 -1 7 C-1.66 6.67 -2.32 6.34 -3 6 C-3 5.34 -3 4.68 -3 4 C-2.01 4 -1.02 4 0 4 C0 2.68 0 1.36 0 0 Z " fill="#FEBE28" transform="translate(136,132)"/>
<path d="M0 0 C1.32 0.33 2.64 0.66 4 1 C3.34 2.32 2.68 3.64 2 5 C0.35 4.67 -1.3 4.34 -3 4 C-2.01 2.68 -1.02 1.36 0 0 Z " fill="#FDB913" transform="translate(154,207)"/>
<path d="M0 0 C3.3 1.65 6.6 3.3 10 5 C10 5.33 10 5.66 10 6 C7.03 5.67 4.06 5.34 1 5 C0.67 3.35 0.34 1.7 0 0 Z " fill="#F5CB62" transform="translate(91,76)"/>
<path d="M0 0 C0.99 0 1.98 0 3 0 C3.33 0.99 3.66 1.98 4 3 C2.35 4.32 0.7 5.64 -1 7 C-1.33 5.35 -1.66 3.7 -2 2 C-1.34 2 -0.68 2 0 2 C0 1.34 0 0.68 0 0 Z " fill="#F9BE33" transform="translate(68,20)"/>
<path d="M0 0 C2.31 0 4.62 0 7 0 C7.33 1.98 7.66 3.96 8 6 C4.63408134 4.55746343 2.48952921 2.66735273 0 0 Z " fill="#F4CD68" transform="translate(58,205)"/>
<path d="M0 0 C1.32 0.33 2.64 0.66 4 1 C2.60667426 4.36720387 1.0210714 5.9859524 -2 8 C-2 6.35 -2 4.7 -2 3 C-1.34 2.67 -0.68 2.34 0 2 C0 1.34 0 0.68 0 0 Z " fill="#F7CE6E" transform="translate(202,164)"/>
<path d="M0 0 C0.66 0 1.32 0 2 0 C2.66 0.66 3.32 1.32 4 2 C4.66 2 5.32 2 6 2 C7.0625 3.8125 7.0625 3.8125 8 6 C7.67 6.99 7.34 7.98 7 9 C5.83037314 7.69013727 4.66437056 6.3770374 3.5 5.0625 C2.8503125 4.33160156 2.200625 3.60070313 1.53125 2.84765625 C0 1 0 1 0 0 Z " fill="#F3CB60" transform="translate(187,55)"/>
<path d="M0 0 C0.99 0 1.98 0 3 0 C5.1875 2.5 5.1875 2.5 7 5 C6.0925 4.814375 5.185 4.62875 4.25 4.4375 C1.31685676 4.04265379 -0.2644657 4.05308428 -3 5 C-1.6875 2.5 -1.6875 2.5 0 0 Z " fill="#F6CF75" transform="translate(58,51)"/>
<path d="M0 0 C2.33944736 0.28730055 4.6739143 0.61936779 7 1 C7 1.33 7 1.66 7 2 C5.02 2 3.04 2 1 2 C1.33 3.32 1.66 4.64 2 6 C1.01 6.495 1.01 6.495 0 7 C-0.38133299 5.0085944 -0.71325582 3.00720923 -1 1 C-0.67 0.67 -0.34 0.34 0 0 Z " fill="#F4CF75" transform="translate(147,9)"/>
<path d="M0 0 C3 1 3 1 4.1875 2.6875 C5.19313465 5.54969093 5.13689641 7.98827908 5 11 C0 3.5 0 3.5 0 0 Z " fill="#F4CD6A" transform="translate(78,92)"/>
<path d="M0 0 C0.66 0.33 1.32 0.66 2 1 C1.34 2.65 0.68 4.3 0 6 C-2.31 6 -4.62 6 -7 6 C-4.74259377 3.66475218 -2.7194239 1.81294927 0 0 Z " fill="#F7D37A" transform="translate(143,70)"/>
<path d="M0 0 C4.03384128 2.07143201 5.92856799 3.96615872 8 8 C7.01 8 6.02 8 5 8 C4.67 6.68 4.34 5.36 4 4 C2.68 4 1.36 4 0 4 C0 2.68 0 1.36 0 0 Z " fill="#F6CA6B" transform="translate(67,198)"/>
<path d="M0 0 C0.99 0.33 1.98 0.66 3 1 C3 1.99 3 2.98 3 4 C1.02 4.66 -0.96 5.32 -3 6 C-1.125 1.125 -1.125 1.125 0 0 Z " fill="#FCB915" transform="translate(210,150)"/>
<path d="M0 0 C0.66 0 1.32 0 2 0 C1.34 4.95 0.68 9.9 0 15 C-0.33 15 -0.66 15 -1 15 C-1.02685412 12.68756208 -1.04632841 10.3750373 -1.0625 8.0625 C-1.07410156 6.77472656 -1.08570313 5.48695312 -1.09765625 4.16015625 C-1 1 -1 1 0 0 Z " fill="#F3BA2C" transform="translate(140,104)"/>
<path d="M0 0 C0.33 0 0.66 0 1 0 C1 1.98 1 3.96 1 6 C2.65 6 4.3 6 6 6 C5.34 6.66 4.68 7.32 4 8 C1.375 7.625 1.375 7.625 -1 7 C-0.67 4.69 -0.34 2.38 0 0 Z " fill="#F4D075" transform="translate(10,71)"/>
<path d="M0 0 C2.375 0.625 2.375 0.625 5 2 C6.3125 5.125 6.3125 5.125 7 8 C5.8274869 7.04882866 4.66212985 6.08882991 3.5 5.125 C2.8503125 4.59132813 2.200625 4.05765625 1.53125 3.5078125 C1.0259375 3.01023437 0.520625 2.51265625 0 2 C0 1.34 0 0.68 0 0 Z " fill="#F3C65B" transform="translate(148,16)"/>
<path d="M0 0 C0.66 0.33 1.32 0.66 2 1 C2 1.66 2 2.32 2 3 C2.66 3 3.32 3 4 3 C3.67 4.32 3.34 5.64 3 7 C3 6.34 3 5.68 3 5 C1.35 4.67 -0.3 4.34 -2 4 C-1.34 3.67 -0.68 3.34 0 3 C0 2.01 0 1.02 0 0 Z " fill="#F7B822" transform="translate(49,173)"/>
<path d="M0 0 C1.32 1.65 2.64 3.3 4 5 C1.525 6.485 1.525 6.485 -1 8 C-0.67 5.36 -0.34 2.72 0 0 Z " fill="#F4CC65" transform="translate(170,162)"/>
<path d="M0 0 C0.66 0 1.32 0 2 0 C2.33 2.64 2.66 5.28 3 8 C1.35 6.35 -0.3 4.7 -2 3 C-1.34 2.01 -0.68 1.02 0 0 Z " fill="#F4CE77" transform="translate(53,56)"/>
<path d="M0 0 C0.66 0 1.32 0 2 0 C1.60196439 2.88575819 1.20990931 3.82189513 -1.0625 5.75 C-1.701875 6.1625 -2.34125 6.575 -3 7 C-3.33 5.68 -3.66 4.36 -4 3 C-2.68 3 -1.36 3 0 3 C0 2.01 0 1.02 0 0 Z " fill="#F3D177" transform="translate(163,205)"/>
<path d="M0 0 C0.33 0 0.66 0 1 0 C0.74438677 2.3431213 0.40729228 4.67843403 0 7 C-0.99 7.495 -0.99 7.495 -2 8 C-2 7.01 -2 6.02 -2 5 C-2.66 5 -3.32 5 -4 5 C-4 4.34 -4 3.68 -4 3 C-2.68 3 -1.36 3 0 3 C0 2.01 0 1.02 0 0 Z " fill="#F8BF3D" transform="translate(173,190)"/>
<path d="M0 0 C0.66 0.66 1.32 1.32 2 2 C1.360625 2.598125 0.72125 3.19625 0.0625 3.8125 C-2.20310389 5.90810337 -2.20310389 5.90810337 -3 9 C-3.66 8.67 -4.32 8.34 -5 8 C-4.1875 5.5625 -4.1875 5.5625 -3 3 C-2.01 2.67 -1.02 2.34 0 2 C0 1.34 0 0.68 0 0 Z " fill="#FEB614" transform="translate(60,158)"/>
<path d="M0 0 C0.66 0.33 1.32 0.66 2 1 C1.67 3.31 1.34 5.62 1 8 C0.67 7.34 0.34 6.68 0 6 C-0.99 5.67 -1.98 5.34 -3 5 C-2.01 3.35 -1.02 1.7 0 0 Z " fill="#FBB919" transform="translate(71,14)"/>
<path d="M0 0 C2.4375 0.6875 2.4375 0.6875 5 2 C5.8125 4.625 5.8125 4.625 6 7 C1.125 2.25 1.125 2.25 0 0 Z " fill="#F6D078" transform="translate(52,198)"/>
<path d="M0 0 C0 1.98 0 3.96 0 6 C-0.99 5.67 -1.98 5.34 -3 5 C-3.99 5 -4.98 5 -6 5 C-1.125 0 -1.125 0 0 0 Z " fill="#FFB613" transform="translate(191,180)"/>
<path d="M0 0 C2.64 0.33 5.28 0.66 8 1 C5 2.5 5 2.5 2 4 C1.34 3.67 0.68 3.34 0 3 C0 2.01 0 1.02 0 0 Z " fill="#FBB825" transform="translate(9,149)"/>
<path d="M0 0 C1.32 0 2.64 0 4 0 C4 0.66 4 1.32 4 2 C5.32 2 6.64 2 8 2 C8 2.99 8 3.98 8 5 C4.62496331 3.8141763 2.35277269 2.72426311 0 0 Z " fill="#F7C659" transform="translate(132,147)"/>
</svg>
