<?xml version="1.0" encoding="UTF-8"?>
<svg version="1.1" xmlns="http://www.w3.org/2000/svg" width="225" height="225">
<path d="M0 0 C4.41648044 5.8838559 3.47568878 12.32048999 3.4375 19.375 C3.45748047 20.67695312 3.47746094 21.97890625 3.49804688 23.3203125 C3.49293274 33.34401935 1.76842912 37.95822774 -4.6875 45.5625 C-7.44233644 49.00015915 -8.88359115 51.46005468 -9 56 C-7.515 56.495 -7.515 56.495 -6 57 C-6 57.66 -6 58.32 -6 59 C-5.34 59 -4.68 59 -4 59 C-3.938125 58.21625 -3.87625 57.4325 -3.8125 56.625 C-3.544375 55.75875 -3.27625 54.8925 -3 54 C-0.4375 52.6875 -0.4375 52.6875 2 52 C1.45276317 55.37462715 0.9451 57.08235 -1 60 C-0.01 59.34 0.98 58.68 2 58 C6.4388094 57.6973539 10.61756713 58.31996731 15 59 C16.40823894 59.18317891 17.81711408 59.36152855 19.2265625 59.53515625 C21.09441406 59.76525391 21.09441406 59.76525391 23 60 C22.98952637 59.16750732 22.97905273 58.33501465 22.96826172 57.47729492 C22.93415558 54.38550844 22.90908924 51.29381792 22.89013672 48.2019043 C22.87514505 46.20680382 22.84973269 44.21179054 22.82421875 42.21679688 C22.81777344 40.96318359 22.81132812 39.70957031 22.8046875 38.41796875 C22.79421387 37.26063232 22.78374023 36.1032959 22.77294922 34.91088867 C23 32 23 32 25 29 C27.88493931 28.70840851 30.55187937 28.60409463 33.4375 28.63671875 C34.27337646 28.63622025 35.10925293 28.63572174 35.97045898 28.63520813 C37.73911921 28.63755041 39.50778266 28.64728803 41.27636719 28.66381836 C43.98923432 28.68740639 46.70111895 28.68438133 49.4140625 28.67773438 C51.13021421 28.68331111 52.84636178 28.69042096 54.5625 28.69921875 C55.37710693 28.69830734 56.19171387 28.69739594 57.03100586 28.69645691 C62.76897842 28.76897842 62.76897842 28.76897842 65 31 C65.22705078 33.33837891 65.22705078 33.33837891 65.1953125 36.2265625 C65.18564453 37.7734375 65.18564453 37.7734375 65.17578125 39.3515625 C65.15064453 40.97191406 65.15064453 40.97191406 65.125 42.625 C65.11597656 43.71296875 65.10695312 44.8009375 65.09765625 45.921875 C65.07403409 48.61480152 65.04109556 51.30729255 65 54 C66.093125 53.938125 67.18625 53.87625 68.3125 53.8125 C72 54 72 54 73.7121582 55.1652832 C75.49493841 57.70511131 75.34192018 59.45902842 75.29296875 62.54296875 C75.28330078 63.61611328 75.27363281 64.68925781 75.26367188 65.79492188 C75.23853516 66.91447266 75.21339844 68.03402344 75.1875 69.1875 C75.17396484 70.31865234 75.16042969 71.44980469 75.14648438 72.61523438 C75.11109958 75.41063317 75.06172948 78.20507892 75 81 C72.29120665 82.35439668 69.99066732 82.06501451 67 82 C67.02356567 83.56681519 67.02356567 83.56681519 67.04760742 85.1652832 C67.10189697 89.03971652 67.1363463 92.91411619 67.16479492 96.78881836 C67.17988384 98.4659592 67.20035748 100.14306057 67.22631836 101.82006836 C67.26269811 104.23040504 67.27972486 106.64022019 67.29296875 109.05078125 C67.30845261 109.80087967 67.32393646 110.55097809 67.33988953 111.32380676 C67.34155229 116.46414594 67.34155229 116.46414594 65.74169922 118.97412109 C63.61636912 120.22596257 62.30082266 120.37339074 59.83984375 120.36328125 C59.04642578 120.36263672 58.25300781 120.36199219 57.43554688 120.36132812 C56.61119141 120.34521484 55.78683594 120.32910156 54.9375 120.3125 C54.10927734 120.31572266 53.28105469 120.31894531 52.42773438 120.32226562 C46.26712592 120.26712592 46.26712592 120.26712592 44 118 C43.875 114.375 43.875 114.375 44 111 C42.72879807 111.01110306 41.45759613 111.02220612 40.14787292 111.03364563 C28.18466027 111.13487873 16.22153418 111.20989684 4.25799084 111.25906086 C-1.89304731 111.28518615 -8.0437405 111.32063852 -14.19458008 111.37719727 C-20.12735586 111.4314112 -26.05979926 111.46139842 -31.99280357 111.47438622 C-34.25953088 111.48364511 -36.52623941 111.50172504 -38.7928257 111.52865028 C-41.96100201 111.56479852 -45.12779419 111.56995119 -48.29614258 111.56762695 C-49.71062683 111.59459152 -49.71062683 111.59459152 -51.15368652 111.62210083 C-53.54125096 111.60307125 -55.6762309 111.54681083 -58 111 C-60.16899109 108.65202332 -60.16899109 108.65202332 -61 106 C-60.505 104.515 -60.505 104.515 -60 103 C-57.7060839 101.85304195 -56.43662851 101.87661348 -53.88717651 101.87974548 C-53.02618347 101.87837082 -52.16519043 101.87699615 -51.27810669 101.87557983 C-50.33152191 101.87917511 -49.38493713 101.88277039 -48.40966797 101.88647461 C-47.41451172 101.88632858 -46.41935547 101.88618256 -45.39404297 101.8860321 C-42.09340257 101.88673069 -38.79281808 101.89452056 -35.4921875 101.90234375 C-33.20818106 101.90420812 -30.92417422 101.90563193 -28.64016724 101.90663147 C-22.61988222 101.91045513 -16.59962121 101.92028414 -10.5793457 101.93133545 C-4.43961919 101.94155282 1.70011119 101.94612979 7.83984375 101.95117188 C19.89324143 101.96190653 31.94661496 101.97950212 44 102 C44 95.4 44 88.8 44 82 C28.82 82 13.64 82 -2 82 C-2.495 83.98 -2.495 83.98 -3 86 C-5.47487711 88.47487711 -11.5408112 87.17337232 -15.00976562 87.18554688 C-15.73591064 87.18546631 -16.46205566 87.18538574 -17.21020508 87.18530273 C-19.42483782 87.18748751 -21.63897123 87.20563531 -23.85351562 87.22460938 C-25.25520662 87.22754356 -26.6569 87.22952819 -28.05859375 87.23046875 C-29.34048584 87.23457764 -30.62237793 87.23868652 -31.94311523 87.24291992 C-35 87 -35 87 -37 85 C-37 84.01 -37 83.02 -37 82 C-52.18 82 -67.36 82 -83 82 C-83 88.6 -83 95.2 -83 102 C-78.05 102 -73.1 102 -68 102 C-66 107 -66 107 -66.92578125 109.296875 C-69.97674423 111.80199715 -72.30560783 111.39245476 -76.1875 111.25 C-77.45980469 111.21390625 -78.73210937 111.1778125 -80.04296875 111.140625 C-81.01878906 111.09421875 -81.99460938 111.0478125 -83 111 C-82.938125 112.11375 -82.87625 113.2275 -82.8125 114.375 C-82.9053125 116.169375 -82.9053125 116.169375 -83 118 C-86.84318431 120.56212287 -90.04693955 120.33108539 -94.5 120.3125 C-95.65822266 120.33666992 -95.65822266 120.33666992 -96.83984375 120.36132812 C-102.38405749 120.36613247 -102.38405749 120.36613247 -104.72583008 118.97412109 C-106.7308572 115.86765447 -106.36674592 112.62483547 -106.29296875 109.05078125 C-106.28872391 108.27816452 -106.28447906 107.50554779 -106.28010559 106.70951843 C-106.26332183 104.24349008 -106.22567147 101.77828104 -106.1875 99.3125 C-106.17245271 97.63998577 -106.15876438 95.96745872 -106.14648438 94.29492188 C-106.11341946 90.19629922 -106.06164028 86.09828849 -106 82 C-106.94875 82.04125 -107.8975 82.0825 -108.875 82.125 C-112 82 -112 82 -114 80 C-114.45482767 76.20653509 -114.3240335 72.38008871 -114.3125 68.5625 C-114.32861328 67.49966797 -114.34472656 66.43683594 -114.36132812 65.34179688 C-114.36197266 64.32279297 -114.36261719 63.30378906 -114.36328125 62.25390625 C-114.36775269 60.85120483 -114.36775269 60.85120483 -114.37231445 59.42016602 C-114 57 -114 57 -112.75585938 55.20092773 C-109.32795739 52.85639911 -105.2058082 53.48851091 -101.1875 53.5 C-100.29740234 53.47164062 -99.40730469 53.44328125 -98.49023438 53.4140625 C-91.69482867 53.39391304 -91.69482867 53.39391304 -88.125 56.5078125 C-83.34126003 60.32284513 -78.73872497 59.57996187 -72.8125 59.375 C-71.72001953 59.36082031 -70.62753906 59.34664062 -69.50195312 59.33203125 C-63.65544881 59.27584672 -63.65544881 59.27584672 -58 58 C-57.67 57.01 -57.34 56.02 -57 55 C-56.01 55.33 -55.02 55.66 -54 56 C-53.67 56.99 -53.34 57.98 -53 59 C-52.01 58.67 -51.02 58.34 -50 58 C-48.515 58.495 -48.515 58.495 -47 59 C-40.9856249 59.29578894 -36.47113262 58.73556631 -31 56 C-30.53045739 52.95418731 -30.53045739 52.95418731 -30.375 49.4375 C-30.30023438 48.23996094 -30.22546875 47.04242188 -30.1484375 45.80859375 C-30.07496094 44.41833984 -30.07496094 44.41833984 -30 43 C-32.31 43 -34.62 43 -37 43 C-36.896875 43.928125 -36.79375 44.85625 -36.6875 45.8125 C-36.790625 46.864375 -36.89375 47.91625 -37 49 C-39.5 50.875 -39.5 50.875 -42 52 C-44 50.6875 -44 50.6875 -46 48 C-47.34695279 40.78843859 -45.71436659 35.76276114 -42.1640625 29.5546875 C-40.83160105 26.63042646 -40.5986302 24.32216246 -40.4375 21.125 C-40.17722603 16.27568493 -40.17722603 16.27568493 -38.3125 13.375 C-35.5353898 11.72374529 -33.19942694 11.29085699 -30 11 C-30.061875 10.113125 -30.12375 9.22625 -30.1875 8.3125 C-29.97078532 4.48387395 -29.45581885 2.93113863 -27 0 C-19.22754166 -4.90002808 -7.77245834 -4.90002808 0 0 Z M-21 6 C-21.33 7.65 -21.66 9.3 -22 11 C-21.07767578 11.14695312 -21.07767578 11.14695312 -20.13671875 11.296875 C-19.32847656 11.44640625 -18.52023438 11.5959375 -17.6875 11.75 C-16.88699219 11.88921875 -16.08648437 12.0284375 -15.26171875 12.171875 C-12.20171583 13.29229058 -11.45458575 14.05446385 -10 17 C-9.50244838 20.24480376 -9.39724571 23.47155182 -9.3125 26.75 C-9.26125977 28.08224609 -9.26125977 28.08224609 -9.20898438 29.44140625 C-9.12671286 31.62747803 -9.05749828 33.81315951 -9 36 C-6.45745817 33.87172609 -5.12454044 32.69574435 -4.5300293 29.37451172 C-4.54461182 28.40271973 -4.55919434 27.43092773 -4.57421875 26.4296875 C-4.58259766 25.36878906 -4.59097656 24.30789062 -4.59960938 23.21484375 C-4.62861328 22.11269531 -4.65761719 21.01054688 -4.6875 19.875 C-4.69716797 18.76511719 -4.70683594 17.65523437 -4.71679688 16.51171875 C-4.55704601 11.08449071 -4.55704601 11.08449071 -6 6 C-10.95 6 -15.9 6 -21 6 Z M-32 20 C-32.12375 21.381875 -32.2475 22.76375 -32.375 24.1875 C-32.76401643 27.7619408 -33.41947853 30.73358896 -35 34 C-33.35 34 -31.7 34 -30 34 C-29.95101562 33.36191406 -29.90203125 32.72382812 -29.8515625 32.06640625 C-29.77679688 31.24011719 -29.70203125 30.41382813 -29.625 29.5625 C-29.55539063 28.73878906 -29.48578125 27.91507813 -29.4140625 27.06640625 C-29.20910156 26.04353516 -29.20910156 26.04353516 -29 25 C-26.56612247 23.78306124 -24.58161154 23.68040104 -21.875 23.4375 C-20.96492188 23.35371094 -20.05484375 23.26992187 -19.1171875 23.18359375 C-18.06917969 23.09271484 -18.06917969 23.09271484 -17 23 C-17 22.01 -17 21.02 -17 20 C-21.95 20 -26.9 20 -32 20 Z M32 37 C32 44.59 32 52.18 32 60 C40.25 60 48.5 60 57 60 C57 52.41 57 44.82 57 37 C48.75 37 40.5 37 32 37 Z M-97 82 C-97 91.57 -97 101.14 -97 111 C-95.02 111 -93.04 111 -91 111 C-91 101.43 -91 91.86 -91 82 C-92.98 82 -94.96 82 -97 82 Z M52 82 C52 91.57 52 101.14 52 111 C53.98 111 55.96 111 58 111 C58 101.43 58 91.86 58 82 C56.02 82 54.04 82 52 82 Z " fill="#F7B42C" transform="translate(132,54)"/>
<path d="M0 0 C0.89009766 -0.02835937 1.78019531 -0.05671875 2.69726562 -0.0859375 C9.49267133 -0.10608696 9.49267133 -0.10608696 13.0625 3.0078125 C17.84623997 6.82284513 22.44877503 6.07996187 28.375 5.875 C29.46748047 5.86082031 30.55996094 5.84664063 31.68554688 5.83203125 C37.53205119 5.77584672 37.53205119 5.77584672 43.1875 4.5 C43.5175 3.51 43.8475 2.52 44.1875 1.5 C45.1775 1.83 46.1675 2.16 47.1875 2.5 C47.6825 3.985 47.6825 3.985 48.1875 5.5 C49.1775 5.17 50.1675 4.84 51.1875 4.5 C52.1775 4.83 53.1675 5.16 54.1875 5.5 C58.19133132 5.63399703 62.1802355 5.54308887 66.1875 5.5 C65.8575 13.09 65.5275 20.68 65.1875 28.5 C49.6775 28.5 34.1675 28.5 18.1875 28.5 C18.1875 35.1 18.1875 41.7 18.1875 48.5 C23.1375 48.5 28.0875 48.5 33.1875 48.5 C35.1875 53.5 35.1875 53.5 34.26171875 55.796875 C31.21075577 58.30199715 28.88189217 57.89245476 25 57.75 C23.09154297 57.69585937 23.09154297 57.69585937 21.14453125 57.640625 C20.16871094 57.59421875 19.19289062 57.5478125 18.1875 57.5 C18.249375 58.61375 18.31125 59.7275 18.375 60.875 C18.2821875 62.669375 18.2821875 62.669375 18.1875 64.5 C14.34431569 67.06212287 11.14056045 66.83108539 6.6875 66.8125 C5.52927734 66.83666992 5.52927734 66.83666992 4.34765625 66.86132812 C-1.19655749 66.86613247 -1.19655749 66.86613247 -3.53833008 65.47412109 C-5.5433572 62.36765447 -5.17924592 59.12483547 -5.10546875 55.55078125 C-5.10122391 54.77816452 -5.09697906 54.00554779 -5.09260559 53.20951843 C-5.07582183 50.74349008 -5.03817147 48.27828104 -5 45.8125 C-4.98495271 44.13998577 -4.97126438 42.46745872 -4.95898438 40.79492188 C-4.92591946 36.69629922 -4.87414028 32.59828849 -4.8125 28.5 C-5.76125 28.54125 -6.71 28.5825 -7.6875 28.625 C-10.8125 28.5 -10.8125 28.5 -12.8125 26.5 C-13.26732767 22.70653509 -13.1365335 18.88008871 -13.125 15.0625 C-13.14111328 13.99966797 -13.15722656 12.93683594 -13.17382812 11.84179688 C-13.17447266 10.82279297 -13.17511719 9.80378906 -13.17578125 8.75390625 C-13.18025269 7.35120483 -13.18025269 7.35120483 -13.18481445 5.92016602 C-12.8125 3.5 -12.8125 3.5 -11.56835938 1.70092773 C-8.14045739 -0.64360089 -4.0183082 -0.01148909 0 0 Z M4.1875 28.5 C4.1875 38.07 4.1875 47.64 4.1875 57.5 C6.1675 57.5 8.1475 57.5 10.1875 57.5 C10.1875 47.93 10.1875 38.36 10.1875 28.5 C8.2075 28.5 6.2275 28.5 4.1875 28.5 Z " fill="#F3B534" transform="translate(30.8125,107.5)"/>
<path d="M0 0 C4.41648044 5.8838559 3.47568878 12.32048999 3.4375 19.375 C3.4674707 21.32792969 3.4674707 21.32792969 3.49804688 23.3203125 C3.49293274 33.34401935 1.76842912 37.95822774 -4.6875 45.5625 C-7.44233644 49.00015915 -8.88359115 51.46005468 -9 56 C-11.35171131 55.40138258 -13.6859378 54.73075648 -16 54 C-17.2263757 51.54724859 -17.11415314 49.9494219 -17.09765625 47.2109375 C-17.09443359 46.26992187 -17.09121094 45.32890625 -17.08789062 44.359375 C-17.07951172 43.37453125 -17.07113281 42.3896875 -17.0625 41.375 C-17.05798828 40.38242188 -17.05347656 39.38984375 -17.04882812 38.3671875 C-17.03702145 35.9113984 -17.020554 33.45572896 -17 31 C-18.65 31 -20.3 31 -22 31 C-21.67 38.92 -21.34 46.84 -21 55 C-22.98 55.495 -22.98 55.495 -25 56 C-24.938125 56.928125 -24.87625 57.85625 -24.8125 58.8125 C-24.9053125 60.3903125 -24.9053125 60.3903125 -25 62 C-25.72703125 62.60328125 -25.72703125 62.60328125 -26.46875 63.21875 C-28.85794458 65.99801717 -28.57200972 69.18130489 -28.6875 72.6875 C-28.790625 75.100625 -28.89375 77.51375 -29 80 C-22.73 80 -16.46 80 -10 80 C-10 73.73 -10 67.46 -10 61 C-9.01 61 -8.02 61 -7 61 C-7 62.32 -7 63.64 -7 65 C-6.01 65.495 -6.01 65.495 -5 66 C-5.33 64.35 -5.66 62.7 -6 61 C-5.01 61 -4.02 61 -3 61 C-2.77484499 64.95756644 -2.57272652 68.91597588 -2.375 72.875 C-2.31054688 74.00292969 -2.24609375 75.13085938 -2.1796875 76.29296875 C-2.128125 77.36933594 -2.0765625 78.44570312 -2.0234375 79.5546875 C-1.97106934 80.54968262 -1.91870117 81.54467773 -1.86474609 82.56982422 C-2 85 -2 85 -4 87 C-7.04101562 87.25878906 -7.04101562 87.25878906 -10.90625 87.265625 C-11.92700623 87.26849518 -11.92700623 87.26849518 -12.96838379 87.27142334 C-14.40747446 87.27278463 -15.84657744 87.26909205 -17.28564453 87.26074219 C-19.49149087 87.25004128 -21.69652281 87.26063872 -23.90234375 87.2734375 C-25.29948097 87.27211589 -26.69661768 87.26955348 -28.09375 87.265625 C-29.36927734 87.26336914 -30.64480469 87.26111328 -31.95898438 87.25878906 C-35 87 -35 87 -37 85 C-37.16699219 82.72509766 -37.16699219 82.72509766 -37.046875 79.9140625 C-37.00433594 78.90085937 -36.96179688 77.88765625 -36.91796875 76.84375 C-36.83482422 75.25046875 -36.83482422 75.25046875 -36.75 73.625 C-36.71003906 72.57054688 -36.67007813 71.51609375 -36.62890625 70.4296875 C-36.20551 61.41249163 -36.20551 61.41249163 -34 58 C-33.01 57.34 -32.02 56.68 -31 56 C-30.41407366 52.88389446 -30.41407366 52.88389446 -30.3125 49.375 C-30.24675781 48.18648437 -30.18101563 46.99796875 -30.11328125 45.7734375 C-30.07589844 44.85820313 -30.03851563 43.94296875 -30 43 C-32.31 43 -34.62 43 -37 43 C-36.896875 43.928125 -36.79375 44.85625 -36.6875 45.8125 C-36.790625 46.864375 -36.89375 47.91625 -37 49 C-39.5 50.875 -39.5 50.875 -42 52 C-44 50.6875 -44 50.6875 -46 48 C-47.34695279 40.78843859 -45.71436659 35.76276114 -42.1640625 29.5546875 C-40.83160105 26.63042646 -40.5986302 24.32216246 -40.4375 21.125 C-40.17722603 16.27568493 -40.17722603 16.27568493 -38.3125 13.375 C-35.5353898 11.72374529 -33.19942694 11.29085699 -30 11 C-30.061875 10.113125 -30.12375 9.22625 -30.1875 8.3125 C-29.97078532 4.48387395 -29.45581885 2.93113863 -27 0 C-19.22754166 -4.90002808 -7.77245834 -4.90002808 0 0 Z M-21 6 C-21.33 7.65 -21.66 9.3 -22 11 C-21.07767578 11.14695312 -21.07767578 11.14695312 -20.13671875 11.296875 C-19.32847656 11.44640625 -18.52023438 11.5959375 -17.6875 11.75 C-16.88699219 11.88921875 -16.08648437 12.0284375 -15.26171875 12.171875 C-12.20171583 13.29229058 -11.45458575 14.05446385 -10 17 C-9.50244838 20.24480376 -9.39724571 23.47155182 -9.3125 26.75 C-9.26125977 28.08224609 -9.26125977 28.08224609 -9.20898438 29.44140625 C-9.12671286 31.62747803 -9.05749828 33.81315951 -9 36 C-6.45745817 33.87172609 -5.12454044 32.69574435 -4.5300293 29.37451172 C-4.54461182 28.40271973 -4.55919434 27.43092773 -4.57421875 26.4296875 C-4.58259766 25.36878906 -4.59097656 24.30789062 -4.59960938 23.21484375 C-4.62861328 22.11269531 -4.65761719 21.01054688 -4.6875 19.875 C-4.69716797 18.76511719 -4.70683594 17.65523437 -4.71679688 16.51171875 C-4.55704601 11.08449071 -4.55704601 11.08449071 -6 6 C-10.95 6 -15.9 6 -21 6 Z M-32 20 C-32.12375 21.381875 -32.2475 22.76375 -32.375 24.1875 C-32.76401643 27.7619408 -33.41947853 30.73358896 -35 34 C-33.35 34 -31.7 34 -30 34 C-29.95101562 33.36191406 -29.90203125 32.72382812 -29.8515625 32.06640625 C-29.77679688 31.24011719 -29.70203125 30.41382813 -29.625 29.5625 C-29.55539063 28.73878906 -29.48578125 27.91507813 -29.4140625 27.06640625 C-29.20910156 26.04353516 -29.20910156 26.04353516 -29 25 C-26.56612247 23.78306124 -24.58161154 23.68040104 -21.875 23.4375 C-20.96492188 23.35371094 -20.05484375 23.26992187 -19.1171875 23.18359375 C-18.06917969 23.09271484 -18.06917969 23.09271484 -17 23 C-17 22.01 -17 21.02 -17 20 C-21.95 20 -26.9 20 -32 20 Z " fill="#9D7044" transform="translate(132,54)"/>
<path d="M0 0 C0.33 0 0.66 0 1 0 C1 9.57 1 19.14 1 29 C2.98 29 4.96 29 7 29 C7 19.43 7 9.86 7 0 C7.33 0 7.66 0 8 0 C7.97381592 0.92337158 7.94763184 1.84674316 7.9206543 2.7980957 C7.83541695 6.22550017 7.77274825 9.65177855 7.7253418 13.07983398 C7.7002019 14.56308768 7.66608408 16.04621753 7.62280273 17.52905273 C7.56211742 19.66160595 7.53378884 21.79252205 7.51171875 23.92578125 C7.48553467 25.20880127 7.45935059 26.49182129 7.43237305 27.8137207 C7.66533603 31.19499476 7.66533603 31.19499476 10.53051758 32.94213867 C11.34544678 33.29123291 12.16037598 33.64032715 13 34 C13.85989387 26.46458651 14.28169336 18.95217577 14.5625 11.375 C14.62727539 9.72564453 14.62727539 9.72564453 14.69335938 8.04296875 C14.79826406 5.36207118 14.90042726 2.68109999 15 0 C15.33 0 15.66 0 16 0 C16.07414321 4.92957259 16.12859817 9.85882081 16.16479492 14.78881836 C16.17988384 16.4659592 16.20035748 18.14306057 16.22631836 19.82006836 C16.26269811 22.23040504 16.27972486 24.64022019 16.29296875 27.05078125 C16.30845261 27.80087967 16.32393646 28.55097809 16.33988953 29.32380676 C16.34155229 34.46414594 16.34155229 34.46414594 14.74169922 36.97412109 C12.61636912 38.22596257 11.30082266 38.37339074 8.83984375 38.36328125 C8.04642578 38.36263672 7.25300781 38.36199219 6.43554688 38.36132812 C5.61119141 38.34521484 4.78683594 38.32910156 3.9375 38.3125 C3.10927734 38.31572266 2.28105469 38.31894531 1.42773438 38.32226562 C-4.73287408 38.26712592 -4.73287408 38.26712592 -7 36 C-7.125 32.375 -7.125 32.375 -7 29 C-8.9068029 29.01665459 -8.9068029 29.01665459 -10.85212708 29.03364563 C-22.81533973 29.13487873 -34.77846582 29.20989684 -46.74200916 29.25906086 C-52.89304731 29.28518615 -59.0437405 29.32063852 -65.19458008 29.37719727 C-71.12735586 29.4314112 -77.05979926 29.46139842 -82.99280357 29.47438622 C-85.25953088 29.48364511 -87.52623941 29.50172504 -89.7928257 29.52865028 C-92.96100201 29.56479852 -96.12779419 29.56995119 -99.29614258 29.56762695 C-100.23913208 29.58560333 -101.18212158 29.60357971 -102.15368652 29.62210083 C-104.54125096 29.60307125 -106.6762309 29.54681083 -109 29 C-111.16899109 26.65202332 -111.16899109 26.65202332 -112 24 C-111.505 22.515 -111.505 22.515 -111 21 C-108.69701344 19.84850672 -107.41003902 19.87663012 -104.84921265 19.87974548 C-103.97980545 19.87837082 -103.11039825 19.87699615 -102.21464539 19.87557983 C-100.78074211 19.88097275 -100.78074211 19.88097275 -99.31787109 19.88647461 C-98.31296127 19.88632858 -97.30805145 19.88618256 -96.27268982 19.8860321 C-92.93958402 19.88673071 -89.60653358 19.89452067 -86.2734375 19.90234375 C-83.96701081 19.90420812 -81.66058372 19.90563193 -79.35415649 19.90663147 C-73.27468783 19.91045518 -67.19524294 19.92028424 -61.11578369 19.93133545 C-54.91573407 19.9415527 -48.71568061 19.94612976 -42.515625 19.95117188 C-30.34373954 19.96190662 -18.17187174 19.97898131 -6 20 C-6.0163147 19.09399048 -6.0163147 19.09399048 -6.03295898 18.16967773 C-6.04141846 17.36989502 -6.04987793 16.5701123 -6.05859375 15.74609375 C-6.07490845 14.56164673 -6.07490845 14.56164673 -6.09155273 13.35327148 C-5.93325189 9.2843066 -4.82409572 5.64819144 -3 2 C-2.34 2 -1.68 2 -1 2 C-0.67 1.34 -0.34 0.68 0 0 Z " fill="#F6B52F" transform="translate(183,136)"/>
<path d="M0 0 C1.65 0 3.3 0 5 0 C5.02505615 0.62567871 5.0501123 1.25135742 5.07592773 1.89599609 C5.19175273 4.72254619 5.31453985 7.54875169 5.4375 10.375 C5.47681641 11.35984375 5.51613281 12.3446875 5.55664062 13.359375 C5.61948242 14.77089844 5.61948242 14.77089844 5.68359375 16.2109375 C5.72025146 17.08024902 5.75690918 17.94956055 5.79467773 18.84521484 C5.87401544 21.0483262 5.87401544 21.0483262 7 23 C9.11327425 23.90725434 9.11327425 23.90725434 11.5625 24.625 C12.80193359 25.01558594 12.80193359 25.01558594 14.06640625 25.4140625 C14.70449219 25.60742188 15.34257813 25.80078125 16 26 C16 26.66 16 27.32 16 28 C16.66 28 17.32 28 18 28 C18.061875 27.21625 18.12375 26.4325 18.1875 25.625 C18.455625 24.75875 18.72375 23.8925 19 23 C21.5625 21.6875 21.5625 21.6875 24 21 C23.45276317 24.37462715 22.9451 26.08235 21 29 C21.99 28.34 22.98 27.68 24 27 C28.44089434 26.69721175 32.61432812 27.3309992 37 28 C39.99777212 28.35436923 42.99837005 28.6800984 46 29 C46.66 31.31 47.32 33.62 48 36 C59.88 36 71.76 36 84 36 C84.66 34.35 85.32 32.7 86 31 C86.99 31 87.98 31 89 31 C89 34.96 89 38.92 89 43 C65.9 43 42.8 43 19 43 C19 38.71 19 34.42 19 30 C18.34 30.33 17.68 30.66 17 31 C17 32.32 17 33.64 17 35 C15.515 34.505 15.515 34.505 14 34 C14.33 32.68 14.66 31.36 15 30 C14.01 30 13.02 30 12 30 C12.33 30.99 12.66 31.98 13 33 C12.91223251 35.74910418 12.7703444 38.44837847 12.5625 41.1875 C12.376875 43.765625 12.19125 46.34375 12 49 C5.73 49 -0.54 49 -7 49 C-7.061875 46.586875 -7.12375 44.17375 -7.1875 41.6875 C-7.21481201 40.93170654 -7.24212402 40.17591309 -7.27026367 39.3972168 C-7.33248079 34.40178418 -7.33248079 34.40178418 -5.51953125 32.2109375 C-5.01808594 31.81132813 -4.51664062 31.41171875 -4 31 C-3.835 29.989375 -3.67 28.97875 -3.5 27.9375 C-3.335 26.968125 -3.17 25.99875 -3 25 C-2.01 24.34 -1.02 23.68 0 23 C0.4164535 20.57900645 0.4164535 20.57900645 0.29296875 17.7734375 C0.2784668 16.2265625 0.2784668 16.2265625 0.26367188 14.6484375 C0.23853516 13.56820312 0.21339844 12.48796875 0.1875 11.375 C0.16719727 9.74304688 0.16719727 9.74304688 0.14648438 8.078125 C0.11104754 5.38492591 0.06164331 2.69270626 0 0 Z " fill="#B99069" transform="translate(110,85)"/>
<path d="M0 0 C2.88493931 -0.29159149 5.55187937 -0.39590537 8.4375 -0.36328125 C9.27337646 -0.36377975 10.10925293 -0.36427826 10.97045898 -0.36479187 C12.73911921 -0.36244959 14.50778266 -0.35271197 16.27636719 -0.33618164 C18.98923432 -0.31259361 21.70111895 -0.31561867 24.4140625 -0.32226562 C26.13021421 -0.31668889 27.84636178 -0.30957904 29.5625 -0.30078125 C30.37710693 -0.30169266 31.19171387 -0.30260406 32.03100586 -0.30354309 C37.76897842 -0.23102158 37.76897842 -0.23102158 40 2 C40.24291992 4.25561523 40.24291992 4.25561523 40.23046875 7.05859375 C40.22853516 8.08533203 40.22660156 9.11207031 40.22460938 10.16992188 C40.20624023 11.78737305 40.20624023 11.78737305 40.1875 13.4375 C40.18685547 14.48099609 40.18621094 15.52449219 40.18554688 16.59960938 C40.07759831 35.92240169 40.07759831 35.92240169 37 39 C34.29864677 39.19973733 31.70202789 39.27981573 29 39.265625 C28.20851562 39.26753845 27.41703125 39.2694519 26.6015625 39.27142334 C24.9270801 39.27278518 23.25258715 39.26908882 21.578125 39.26074219 C19.01017619 39.2500424 16.44292697 39.26063725 13.875 39.2734375 C12.24999845 39.2721159 10.62499734 39.26955351 9 39.265625 C7.84371094 39.27169769 7.84371094 39.27169769 6.6640625 39.27789307 C1.22992132 39.22992132 1.22992132 39.22992132 -1 37 C-2.50453725 30.35959305 -2.18406836 23.5831184 -2.1875 16.8125 C-2.19974609 15.52923828 -2.21199219 14.24597656 -2.22460938 12.92382812 C-2.22750977 11.08401367 -2.22750977 11.08401367 -2.23046875 9.20703125 C-2.23457764 8.0878833 -2.23868652 6.96873535 -2.24291992 5.81567383 C-2 3 -2 3 0 0 Z M7 8 C7 15.59 7 23.18 7 31 C15.25 31 23.5 31 32 31 C32 23.41 32 15.82 32 8 C23.75 8 15.5 8 7 8 Z " fill="#9A7046" transform="translate(157,83)"/>
<path d="M0 0 C22.77 0 45.54 0 69 0 C69 1.98 69 3.96 69 6 C54.15 6.33 39.3 6.66 24 7 C23.67 13.6 23.34 20.2 23 27 C27.95 27 32.9 27 38 27 C38.66 28.65 39.32 30.3 40 32 C39.34 32.99 38.68 33.98 38 35 C34.84765625 35.2578125 34.84765625 35.2578125 31.0625 35.125 C25.9383453 34.91087119 25.9383453 34.91087119 21 36 C21 37.65 21 39.3 21 41 C18.83125748 40.49396008 17.00032373 40.00016187 15 39 C15 38.34 15 37.68 15 37 C15.66 37 16.32 37 17 37 C17 27.1 17 17.2 17 7 C13.7 7 10.4 7 7 7 C7 16.57 7 26.14 7 36 C6.01 36.495 6.01 36.495 5 37 C4.27840576 38.64363134 3.60648579 40.31050386 3 42 C2.67 42 2.34 42 2 42 C1.13797692 35.31590041 0.84695356 28.79831974 0.875 22.0625 C0.87113281 21.13759766 0.86726563 20.21269531 0.86328125 19.25976562 C0.87189079 13.11685771 1.27310726 7.09911028 2 1 C1.34 0.67 0.68 0.34 0 0 Z " fill="#FBB529" transform="translate(26,129)"/>
<path d="M0 0 C2.24834496 -0.13526139 4.49902514 -0.23210804 6.75 -0.3125 C8.00296875 -0.37050781 9.2559375 -0.42851563 10.546875 -0.48828125 C11.68640625 -0.32714844 12.8259375 -0.16601562 14 0 C14.48855469 0.82048828 14.97710937 1.64097656 15.48046875 2.48632812 C18.9770827 5.97481042 21.57988578 5.62832686 26.38140869 5.71894836 C27.49820007 5.71501572 28.61499146 5.71108307 29.765625 5.70703125 C31.48842682 5.72971321 31.48842682 5.72971321 33.24603271 5.75285339 C36.91421983 5.79583923 40.58158576 5.80457945 44.25 5.8125 C46.73700117 5.83563565 49.22398268 5.86099902 51.7109375 5.88867188 C57.80729936 5.95163195 63.9033389 5.98647968 70 6 C70 7.98 70 9.96 70 12 C46.9 12 23.8 12 0 12 C0 8.04 0 4.08 0 0 Z " fill="#FDF49E" transform="translate(26,116)"/>
<path d="M0 0 C0.99 0 1.98 0 3 0 C3 3.96 3 7.92 3 12 C-20.1 12 -43.2 12 -67 12 C-67 10.02 -67 8.04 -67 6 C-45.55 5.67 -24.1 5.34 -2 5 C-1.34 3.35 -0.68 1.7 0 0 Z " fill="#FCF5A5" transform="translate(196,116)"/>
<path d="M0 0 C2.62901288 1.52206009 4.84365964 2.84365964 7 5 C9.47376013 5.29459432 9.47376013 5.29459432 12.33984375 5.23046875 C13.9340918 5.22756836 13.9340918 5.22756836 15.56054688 5.22460938 C16.67494141 5.21236328 17.78933594 5.20011719 18.9375 5.1875 C20.60329102 5.1865332 20.60329102 5.1865332 22.30273438 5.18554688 C28.2473827 5.24050487 28.2473827 5.24050487 34 4 C34.33 3.01 34.66 2.02 35 1 C35.99 1.33 36.98 1.66 38 2 C38.495 3.485 38.495 3.485 39 5 C39.99 4.67 40.98 4.34 42 4 C42.99 4.33 43.98 4.66 45 5 C47.06145107 5.068991 49.12501401 5.08467727 51.1875 5.0625 C52.27417969 5.05347656 53.36085937 5.04445313 54.48046875 5.03515625 C55.31191406 5.02355469 56.14335938 5.01195313 57 5 C56.67 7.97 56.34 10.94 56 14 C38.84 14 21.68 14 4 14 C4 13.67 4 13.34 4 13 C8.5838914 11.90684754 13.12511007 11.67717375 17.8125 11.4375 C18.99489258 11.37272461 18.99489258 11.37272461 20.20117188 11.30664062 C22.13394215 11.20121679 24.06695026 11.10016906 26 11 C26.33 10.01 26.66 9.02 27 8 C20.4 8 13.8 8 7 8 C7 8.99 7 9.98 7 11 C5.35 9.35 3.7 7.7 2 6 C2.66 5.67 3.32 5.34 4 5 C3.01 4.319375 3.01 4.319375 2 3.625 C1.34 3.08875 0.68 2.5525 0 2 C0 1.34 0 0.68 0 0 Z " fill="#F7B634" transform="translate(40,108)"/>
<path d="M0 0 C3 1 3 1 4.66040039 3.15087891 C7.20106527 8.55448 6.46926888 14.50642164 6.4375 20.375 C6.4674707 22.32792969 6.4674707 22.32792969 6.49804688 24.3203125 C6.49293274 34.34401935 4.76842912 38.95822774 -1.6875 46.5625 C-4.44233644 50.00015915 -5.88359115 52.46005468 -6 57 C-6.66 57 -7.32 57 -8 57 C-7.53199289 52.94393835 -7.12046792 49.53411321 -5 46 C-5.66 46 -6.32 46 -7 46 C-8.125 43.6875 -8.125 43.6875 -9 41 C-8.34 40.01 -7.68 39.02 -7 38 C-7.33 37.34 -7.66 36.68 -8 36 C-8.08308638 34.62451844 -8.10736016 33.24514204 -8.09765625 31.8671875 C-8.09443359 31.06152344 -8.09121094 30.25585938 -8.08789062 29.42578125 C-8.07951172 28.58402344 -8.07113281 27.74226563 -8.0625 26.875 C-8.05798828 26.02550781 -8.05347656 25.17601563 -8.04882812 24.30078125 C-8.03702874 22.20049091 -8.01909306 20.1002367 -8 18 C-8.66 18 -9.32 18 -10 18 C-10 17.01 -10 16.02 -10 15 C-12.97 14.67 -15.94 14.34 -19 14 C-19.33 12.68 -19.66 11.36 -20 10 C-19.67 10.66 -19.34 11.32 -19 12 C-16.76933366 12.27600537 -14.57062681 12.31501132 -12.32421875 12.36328125 C-8.7708815 13.3367165 -7.82884035 14.83109623 -6 18 C-5.3999735 21.10344834 -5.30478337 24.15747572 -5.25 27.3125 C-5.22035156 28.14845703 -5.19070312 28.98441406 -5.16015625 29.84570312 C-5.08983893 31.89662485 -5.04261027 33.94831562 -5 36 C-2.67108788 32.50663182 -2.76448857 31.13992135 -2.8046875 27.01953125 C-2.81113281 25.85615234 -2.81757812 24.69277344 -2.82421875 23.49414062 C-2.84097656 22.27919922 -2.85773438 21.06425781 -2.875 19.8125 C-2.88402344 18.58595703 -2.89304687 17.35941406 -2.90234375 16.09570312 C-2.92593896 13.06371915 -2.96181033 10.03183527 -3 7 C-7.95 7 -12.9 7 -18 7 C-18 7.66 -18 8.32 -18 9 C-18.66 8.67 -19.32 8.34 -20 8 C-19.67 7.34 -19.34 6.68 -19 6 C-16.63671875 5.62109375 -16.63671875 5.62109375 -13.6875 5.4375 C-9.69477663 5.20588712 -9.69477663 5.20588712 -5.83203125 4.28515625 C-4 4 -4 4 -2.40600586 5.08544922 C-0.37502295 7.85102796 -0.64408697 9.94434132 -0.671875 13.34765625 C-0.67703125 14.59224609 -0.6821875 15.83683594 -0.6875 17.11914062 C-0.708125 18.42044922 -0.72875 19.72175781 -0.75 21.0625 C-0.75515625 22.36767578 -0.7603125 23.67285156 -0.765625 25.01757812 C-0.84586683 34.69173366 -0.84586683 34.69173366 -2 37 C-0.515 36.505 -0.515 36.505 1 36 C1.66 36.33 2.32 36.66 3 37 C3.07417023 32.49767666 3.1286105 27.99570909 3.16479492 23.49291992 C3.17987936 21.96128139 3.20034978 20.42968602 3.22631836 18.89819336 C3.26271847 16.69634346 3.27972913 14.49506467 3.29296875 12.29296875 C3.30845261 11.60849167 3.32393646 10.92401459 3.33988953 10.21879578 C3.3730498 6.38138308 3.3730498 6.38138308 1.48168945 3.16918945 C0.99273193 2.78335693 0.50377441 2.39752441 0 2 C0 1.34 0 0.68 0 0 Z " fill="#946D47" transform="translate(129,53)"/>
<path d="M0 0 C0.66 0 1.32 0 2 0 C2 9.57 2 19.14 2 29 C3.98 29 5.96 29 8 29 C8 19.43 8 9.86 8 0 C8.66 0 9.32 0 10 0 C10 9.9 10 19.8 10 30 C9.34 30 8.68 30 8 30 C8 30.66 8 31.32 8 32 C9.98 32.66 11.96 33.32 14 34 C14 32.35 14 30.7 14 29 C13.34 28.67 12.68 28.34 12 28 C15.6094882 27.17816753 18.98694361 26.83774254 22.6875 26.8125 C24.11642578 26.79123047 24.11642578 26.79123047 25.57421875 26.76953125 C28 27 28 27 30 29 C25.38 29 20.76 29 16 29 C16 31.31 16 33.62 16 36 C12.13707629 38.57528248 8.91053122 38.29454471 4.4375 38.25 C3.65697266 38.25773437 2.87644531 38.26546875 2.07226562 38.2734375 C-3.74664502 38.25335498 -3.74664502 38.25335498 -6 36 C-6.1953125 33.6171875 -6.1953125 33.6171875 -6.125 30.875 C-6.10695313 29.96492188 -6.08890625 29.05484375 -6.0703125 28.1171875 C-6.04710938 27.41851562 -6.02390625 26.71984375 -6 26 C-5.67 26 -5.34 26 -5 26 C-4.67 28.64 -4.34 31.28 -4 34 C-3.34 32.35 -2.68 30.7 -2 29 C-1.34 29 -0.68 29 0 29 C0 19.43 0 9.86 0 0 Z " fill="#EDB339" transform="translate(33,136)"/>
<path d="M0 0 C0.6875 1.75 0.6875 1.75 1 4 C-0.4375 6.25 -0.4375 6.25 -2 8 C-1.01 7.34 -0.02 6.68 1 6 C5.44089434 5.69721175 9.61432812 6.3309992 14 7 C16.99798589 7.3543945 19.99842777 7.67675376 23 8 C23.66 10.64 24.32 13.28 25 16 C15.43 16 5.86 16 -4 16 C-4.33 11.71 -4.66 7.42 -5 3 C-3.35 2.01 -1.7 1.02 0 0 Z " fill="#F6BA3D" transform="translate(133,106)"/>
<path d="M0 0 C2.5 1.375 2.5 1.375 5 3 C5 3.66 5 4.32 5 5 C5.66 5 6.32 5 7 5 C7.33 3.68 7.66 2.36 8 1 C9.98 1 11.96 1 14 1 C16.03684712 5.07369424 16.0257259 7.58937864 15 12 C13.35 12.33 11.7 12.66 10 13 C10.04125 13.78375 10.0825 14.5675 10.125 15.375 C10 18 10 18 8 20 C3.44444444 19.44444444 3.44444444 19.44444444 2 18 C1.95936168 16.33382885 1.957279 14.66611905 2 13 C1.195625 12.87625 0.39125 12.7525 -0.4375 12.625 C-1.283125 12.41875 -2.12875 12.2125 -3 12 C-4.42041821 9.15916359 -4.31452272 7.14522722 -4 4 C-2 1.625 -2 1.625 0 0 Z " fill="#A07048" transform="translate(170,92)"/>
<path d="M0 0 C1.32 0.66 2.64 1.32 4 2 C3.814375 2.53625 3.62875 3.0725 3.4375 3.625 C2.85857093 6.76775782 3.06899084 8.9409699 4 12 C6.50032636 13.21074679 6.50032636 13.21074679 9 14 C8.97679688 13.24074219 8.95359375 12.48148438 8.9296875 11.69921875 C8.90261719 10.20841797 8.90261719 10.20841797 8.875 8.6875 C8.85179688 7.70136719 8.82859375 6.71523437 8.8046875 5.69921875 C9 3 9 3 11 0 C14.875 1.875 14.875 1.875 16 3 C16.07320163 5.5327765 16.09227569 8.03103918 16.0625 10.5625 C16.041875 13.016875 16.02125 15.47125 16 18 C9.73 18 3.46 18 -3 18 C-3.061875 15.586875 -3.12375 13.17375 -3.1875 10.6875 C-3.21481201 9.93170654 -3.24212402 9.17591309 -3.27026367 8.3972168 C-3.33206668 3.4350331 -3.33206668 3.4350331 -1.48828125 1.01953125 C-0.99714844 0.68308594 -0.50601563 0.34664063 0 0 Z " fill="#E4C19A" transform="translate(106,116)"/>
<path d="M0 0 C0.33 0 0.66 0 1 0 C1 9.57 1 19.14 1 29 C2.98 29 4.96 29 7 29 C7 19.43 7 9.86 7 0 C7.33 0 7.66 0 8 0 C7.97381592 0.92337158 7.94763184 1.84674316 7.9206543 2.7980957 C7.83541695 6.22550017 7.77274825 9.65177855 7.7253418 13.07983398 C7.7002019 14.56308768 7.66608408 16.04621753 7.62280273 17.52905273 C7.56211742 19.66160595 7.53378884 21.79252205 7.51171875 23.92578125 C7.48553467 25.20880127 7.45935059 26.49182129 7.43237305 27.8137207 C7.66533603 31.19499476 7.66533603 31.19499476 10.53051758 32.94213867 C11.34544678 33.29123291 12.16037598 33.64032715 13 34 C13.85989387 26.46458651 14.28169336 18.95217577 14.5625 11.375 C14.60568359 10.27542969 14.64886719 9.17585937 14.69335938 8.04296875 C14.79826406 5.36207118 14.90042726 2.68109999 15 0 C15.33 0 15.66 0 16 0 C16.07414321 4.92957259 16.12859817 9.85882081 16.16479492 14.78881836 C16.17988384 16.4659592 16.20035748 18.14306057 16.22631836 19.82006836 C16.26269811 22.23040504 16.27972486 24.64022019 16.29296875 27.05078125 C16.30845261 27.80087967 16.32393646 28.55097809 16.33988953 29.32380676 C16.34155229 34.46414594 16.34155229 34.46414594 14.74169922 36.97412109 C12.61636912 38.22596257 11.30082266 38.37339074 8.83984375 38.36328125 C8.04642578 38.36263672 7.25300781 38.36199219 6.43554688 38.36132812 C5.61119141 38.34521484 4.78683594 38.32910156 3.9375 38.3125 C3.10927734 38.31572266 2.28105469 38.31894531 1.42773438 38.32226562 C-4.73287408 38.26712592 -4.73287408 38.26712592 -7 36 C-7.125 32.875 -7.125 32.875 -7 30 C-6.67 30 -6.34 30 -6 30 C-6 31.65 -6 33.3 -6 35 C-4.02 34.505 -4.02 34.505 -2 34 C-2 33.34 -2 32.68 -2 32 C-1.34 32 -0.68 32 0 32 C0 21.44 0 10.88 0 0 Z " fill="#EFB336" transform="translate(183,136)"/>
<path d="M0 0 C0.94059769 0.00007553 1.88119537 0.00015106 2.85029602 0.00022888 C4.35368782 0.00797081 4.35368782 0.00797081 5.88745117 0.01586914 C6.92359055 0.01728409 7.95972992 0.01869904 9.02726746 0.02015686 C12.32834796 0.02574297 15.62936001 0.03829297 18.93041992 0.05102539 C21.1719554 0.05604218 23.41349194 0.06060478 25.6550293 0.06469727 C31.14268276 0.07570786 36.63029645 0.09243221 42.11791992 0.11352539 C42.11791992 1.43352539 42.11791992 2.75352539 42.11791992 4.11352539 C24.29791992 4.11352539 6.47791992 4.11352539 -11.88208008 4.11352539 C-9.88208008 1.11352539 -9.88208008 1.11352539 -7.56221008 0.43312073 C-5.00938173 0.12870563 -2.56980738 -0.0069267 0 0 Z " fill="#FCF7AB" transform="translate(52.882080078125,122.886474609375)"/>
<path d="M0 0 C5.37515933 -0.02467759 10.75028585 -0.04284928 16.12548828 -0.05493164 C17.95492121 -0.05996737 19.78435009 -0.06679627 21.61376953 -0.07543945 C24.23991898 -0.08753824 26.86601532 -0.09323583 29.4921875 -0.09765625 C30.31306854 -0.10281754 31.13394958 -0.10797882 31.97970581 -0.11329651 C37.77225659 -0.11387171 37.77225659 -0.11387171 40 1 C40 2.32 40 3.64 40 5 C26.8 5.33 13.6 5.66 0 6 C0 4.02 0 2.04 0 0 Z " fill="#FDB628" transform="translate(130,129)"/>
<path d="M0 0 C3.625 0.25 3.625 0.25 5.33325195 1.41918945 C7.12301211 3.95583875 6.96693595 5.70803509 6.91796875 8.79296875 C6.90830078 9.86611328 6.89863281 10.93925781 6.88867188 12.04492188 C6.86353516 13.16447266 6.83839844 14.28402344 6.8125 15.4375 C6.79896484 16.56865234 6.78542969 17.69980469 6.77148438 18.86523438 C6.73609958 21.66063317 6.68672948 24.45507892 6.625 27.25 C5.965 27.25 5.305 27.25 4.625 27.25 C3.635 24.94 2.645 22.63 1.625 20.25 C0.635 20.25 -0.355 20.25 -1.375 20.25 C-1.375 16.29 -1.375 12.33 -1.375 8.25 C-2.365 8.25 -3.355 8.25 -4.375 8.25 C-4.41741723 5.91705225 -4.41592937 3.58297433 -4.375 1.25 C-3.375 0.25 -3.375 0.25 0 0 Z " fill="#F3B535" transform="translate(200.375,107.75)"/>
<path d="M0 0 C1.32 0.66 2.64 1.32 4 2 C3.34 2.66 2.68 3.32 2 4 C3.32 4.99 4.64 5.98 6 7 C5.67 6.01 5.34 5.02 5 4 C11.93 4 18.86 4 26 4 C26 5.32 26 6.64 26 8 C23.48788287 10.51211713 16.95376677 9.53565223 13.5625 9.6875 C12.48677734 9.74744141 11.41105469 9.80738281 10.30273438 9.86914062 C9.27599609 9.91619141 8.24925781 9.96324219 7.19140625 10.01171875 C5.77130249 10.08072388 5.77130249 10.08072388 4.32250977 10.15112305 C2 10 2 10 0 8 C-0.93312508 4.69164744 -1.10773342 3.32320026 0 0 Z " fill="#FBB628" transform="translate(41,111)"/>
<path d="M0 0 C1.65 0 3.3 0 5 0 C7.03684712 4.07369424 7.0257259 6.58937864 6 11 C4.35 11.33 2.7 11.66 1 12 C1.04125 12.78375 1.0825 13.5675 1.125 14.375 C1 17 1 17 -1 19 C-5.55555556 18.44444444 -5.55555556 18.44444444 -7 17 C-7.04063832 15.33382885 -7.042721 13.66611905 -7 12 C-8.65 11.67 -10.3 11.34 -12 11 C-12.33 9.02 -12.66 7.04 -13 5 C-11.02 5.99 -11.02 5.99 -9 7 C-9 7.66 -9 8.32 -9 9 C-8.01 9.33 -7.02 9.66 -6 10 C-4.8125 12.5625 -4.8125 12.5625 -4 15 C-4.33 15.33 -4.66 15.66 -5 16 C-4.01 16.33 -3.02 16.66 -2 17 C-1.7834375 15.8553125 -1.7834375 15.8553125 -1.5625 14.6875 C-1 12 -1 12 0 9 C0.06740865 7.43881572 0.08514456 5.8749748 0.0625 4.3125 C0.05347656 3.50425781 0.04445312 2.69601563 0.03515625 1.86328125 C0.02355469 1.24839844 0.01195312 0.63351563 0 0 Z M-9 6 C-7 7 -7 7 -7 7 Z " fill="#906B49" transform="translate(179,93)"/>
<path d="M0 0 C0.598125 0.226875 1.19625 0.45375 1.8125 0.6875 C1.1525 2.6675 0.4925 4.6475 -0.1875 6.6875 C0.4725 6.6875 1.1325 6.6875 1.8125 6.6875 C1.8125 8.3375 1.8125 9.9875 1.8125 11.6875 C0.4925 12.0175 -0.8275 12.3475 -2.1875 12.6875 C-2.1875 14.6675 -2.1875 16.6475 -2.1875 18.6875 C-3.5075 18.6875 -4.8275 18.6875 -6.1875 18.6875 C-6.5175 19.3475 -6.8475 20.0075 -7.1875 20.6875 C-8.97319161 18.90180839 -8.40218103 16.35096262 -8.4375 13.9375 C-8.46328125 12.89078125 -8.4890625 11.8440625 -8.515625 10.765625 C-8.06794945 6.56600196 -6.26642053 4.09478765 -3.75 0.8125 C-2.1875 -0.3125 -2.1875 -0.3125 0 0 Z " fill="#A07043" transform="translate(96.1875,83.3125)"/>
<path d="M0 0 C1.65 0 3.3 0 5 0 C5 7.26 5 14.52 5 22 C3.35 22 1.7 22 0 22 C0 14.74 0 7.48 0 0 Z " fill="#EBCAA3" transform="translate(110,85)"/>
<path d="M0 0 C1.32 0.66 2.64 1.32 4 2 C3.81824219 2.57621094 3.63648437 3.15242188 3.44921875 3.74609375 C2.9557998 6.22176971 3.16448722 7.64294149 3.8125 10.0625 C3.98394531 10.73410156 4.15539062 11.40570313 4.33203125 12.09765625 C5.01268777 14.28739062 5.01268777 14.28739062 7 17 C3.7 17 0.4 17 -3 17 C-3.08097324 14.72975032 -3.13917704 12.45867925 -3.1875 10.1875 C-3.22230469 8.92292969 -3.25710937 7.65835938 -3.29296875 6.35546875 C-3 3 -3 3 -1.48828125 1.05078125 C-0.75158203 0.53064453 -0.75158203 0.53064453 0 0 Z " fill="#E9C8A2" transform="translate(106,116)"/>
<path d="M0 0 C-3.09310765 1.79300235 -5.38685829 2.20855209 -8.9375 2.3125 C-12.59167879 2.63492754 -13.84083332 2.88824467 -16.9375 5.0625 C-19.42660899 8.60759462 -20.57134449 11.91812711 -22 16 C-24.0141977 17.00709885 -25.81903726 17.47128176 -28 18 C-28.99 18.33 -29.98 18.66 -31 19 C-31.33 22.63 -31.66 26.26 -32 30 C-32.33 30 -32.66 30 -33 30 C-33.62054002 20.0024108 -33.62054002 20.0024108 -31.375 16.375 C-28.56673619 14.74916306 -26.21529643 14.29229968 -23 14 C-23.061875 13.113125 -23.12375 12.22625 -23.1875 11.3125 C-22.97078532 7.48387395 -22.45581885 5.93113863 -20 3 C-13.72650957 -0.95502657 -7.22014072 -0.29314857 0 0 Z " fill="#866542" transform="translate(125,51)"/>
<path d="M0 0 C2.62901288 1.52206009 4.84365964 2.84365964 7 5 C9.47376013 5.29459432 9.47376013 5.29459432 12.33984375 5.23046875 C13.9340918 5.22756836 13.9340918 5.22756836 15.56054688 5.22460938 C16.67494141 5.21236328 17.78933594 5.20011719 18.9375 5.1875 C20.60329102 5.1865332 20.60329102 5.1865332 22.30273438 5.18554688 C28.2473827 5.24050487 28.2473827 5.24050487 34 4 C34.33 3.01 34.66 2.02 35 1 C35.99 1.33 36.98 1.66 38 2 C38.495 3.485 38.495 3.485 39 5 C39.99 4.67 40.98 4.34 42 4 C42.66 4.66 43.32 5.32 44 6 C40.18422037 7.20205614 36.35364011 7.22194982 32.390625 7.31640625 C31.30041046 7.3475779 31.30041046 7.3475779 30.18817139 7.37937927 C27.87554009 7.44455512 25.56279907 7.5036104 23.25 7.5625 C21.67837425 7.60571566 20.10675944 7.64933092 18.53515625 7.69335938 C14.69021547 7.80020356 10.84516476 7.90156024 7 8 C7 8.99 7 9.98 7 11 C5.35 9.35 3.7 7.7 2 6 C2.66 5.67 3.32 5.34 4 5 C3.01 4.319375 3.01 4.319375 2 3.625 C1.34 3.08875 0.68 2.5525 0 2 C0 1.34 0 0.68 0 0 Z " fill="#EFB842" transform="translate(40,108)"/>
<path d="M0 0 C3.96 0 7.92 0 12 0 C11.67 2.97 11.34 5.94 11 9 C-6.16 9 -23.32 9 -41 9 C-41 8.67 -41 8.34 -41 8 C-24.17 8 -7.34 8 10 8 C10 6.02 10 4.04 10 2 C8.081875 2.061875 8.081875 2.061875 6.125 2.125 C3.9453125 2.1953125 3.9453125 2.1953125 2 2 C1.34 1.34 0.68 0.68 0 0 Z " fill="#F4C652" transform="translate(85,113)"/>
<path d="M0 0 C0.33 0 0.66 0 1 0 C1.07414321 4.92957259 1.12859817 9.85882081 1.16479492 14.78881836 C1.17988384 16.4659592 1.20035748 18.14306057 1.22631836 19.82006836 C1.26269811 22.23040504 1.27972486 24.64022019 1.29296875 27.05078125 C1.30845261 27.80087967 1.32393646 28.55097809 1.33988953 29.32380676 C1.34155317 34.46688233 1.34155317 34.46688233 -0.26757812 36.97851562 C-2.36018007 38.21237224 -3.59096424 38.34757224 -6.01171875 38.29296875 C-6.76904297 38.28330078 -7.52636719 38.27363281 -8.30664062 38.26367188 C-9.09232422 38.23853516 -9.87800781 38.21339844 -10.6875 38.1875 C-11.88342773 38.16719727 -11.88342773 38.16719727 -13.10351562 38.14648438 C-15.06929967 38.11117089 -17.03473582 38.05736447 -19 38 C-19 37.67 -19 37.34 -19 37 C-10.585 36.505 -10.585 36.505 -2 36 C-1.01 18.18 -1.01 18.18 0 0 Z " fill="#E2AF49" transform="translate(198,136)"/>
<path d="M0 0 C0.33 0 0.66 0 1 0 C1.33 4.62 1.66 9.24 2 14 C3.32 13.34 4.64 12.68 6 12 C5.979375 11.195625 5.95875 10.39125 5.9375 9.5625 C6 7 6 7 7 6 C9.9375 5.8125 9.9375 5.8125 13 6 C13.66 6.66 14.32 7.32 15 8 C12.69 8 10.38 8 8 8 C8.103125 8.928125 8.20625 9.85625 8.3125 10.8125 C8.1578125 12.3903125 8.1578125 12.3903125 8 14 C5.5 15.875 5.5 15.875 3 17 C1 15.6875 1 15.6875 -1 13 C-1.48640203 8.72345226 -1.96132202 3.92264405 0 0 Z " fill="#836442" transform="translate(87,89)"/>
<path d="M0 0 C2.60335506 2.78293258 2.2956846 4.61655067 2.22753906 8.3815918 C2.20820313 10.26201172 2.20820313 10.26201172 2.18847656 12.18041992 C2.15496094 13.49075195 2.12144531 14.80108398 2.08691406 16.15112305 C2.06684713 17.48638315 2.04859668 18.82167188 2.03222656 20.15698242 C1.98501209 23.42658451 1.91916591 26.69474496 1.83691406 29.96362305 C-0.14308594 30.95362305 -0.14308594 30.95362305 -2.16308594 31.96362305 C-1.83711426 31.42898437 -1.51114258 30.8943457 -1.17529297 30.34350586 C0.08775123 27.37385924 0.06382537 25.10857622 0.03222656 21.88549805 C0.02578125 20.7253418 0.01933594 19.56518555 0.01269531 18.36987305 C-0.01244141 16.5600293 -0.01244141 16.5600293 -0.03808594 14.71362305 C-0.04710938 13.4915918 -0.05613281 12.26956055 -0.06542969 11.01049805 C-0.08898991 7.99478939 -0.12486055 4.97918147 -0.16308594 1.96362305 C-5.11308594 1.96362305 -10.06308594 1.96362305 -15.16308594 1.96362305 C-15.16308594 2.62362305 -15.16308594 3.28362305 -15.16308594 3.96362305 C-15.82308594 3.63362305 -16.48308594 3.30362305 -17.16308594 2.96362305 C-16.83308594 2.30362305 -16.50308594 1.64362305 -16.16308594 0.96362305 C-13.76464844 0.5847168 -13.76464844 0.5847168 -10.78808594 0.40112305 C-0.54483218 -0.2610398 -0.54483218 -0.2610398 0 0 Z " fill="#86684C" transform="translate(126.1630859375,58.036376953125)"/>
<path d="M0 0 C0.625 2.3125 0.625 2.3125 1 5 C0.01 6.485 0.01 6.485 -1 8 C-5.75 7.25 -5.75 7.25 -8 5 C-7.75 2.4375 -7.75 2.4375 -7 0 C-4.3333581 -1.33332095 -2.83319697 -0.67102033 0 0 Z " fill="#E9B553" transform="translate(150,141)"/>
<path d="M0 0 C0.33 0.66 0.66 1.32 1 2 C3.23066634 2.27600537 5.42937319 2.31501132 7.67578125 2.36328125 C10 3 10 3 12.27734375 4.9609375 C14.66025333 9.16480065 14.44444787 12.57470289 14.25 17.3125 C14.23195313 18.14845703 14.21390625 18.98441406 14.1953125 19.84570312 C14.14841126 21.89763228 14.07667411 23.94896756 14 26 C13.34 26 12.68 26 12 26 C12 20.06 12 14.12 12 8 C11.34 8 10.68 8 10 8 C10 7.01 10 6.02 10 5 C7.03 4.67 4.06 4.34 1 4 C0.67 2.68 0.34 1.36 0 0 Z " fill="#8A6948" transform="translate(109,63)"/>
<path d="M0 0 C2.5 0.125 2.5 0.125 5 1 C6.3125 3.0625 6.3125 3.0625 7 5 C5.25 7.0625 5.25 7.0625 3 9 C0.75 8.75 0.75 8.75 -1 8 C-1.625 5.125 -1.625 5.125 -2 2 C-1.34 1.34 -0.68 0.68 0 0 Z " fill="#EDB33D" transform="translate(155,140)"/>
<path d="M0 0 C4.55555556 0.55555556 4.55555556 0.55555556 6 2 C6.04063832 3.66617115 6.042721 5.33388095 6 7 C3.6875 8.125 3.6875 8.125 1 9 C0.01 8.34 -0.98 7.68 -2 7 C-2.3125 4.5 -2.3125 4.5 -2 2 C-1.34 1.34 -0.68 0.68 0 0 Z " fill="#F4B530" transform="translate(166,140)"/>
<path d="M0 0 C3.63 0 7.26 0 11 0 C11 1.98 11 3.96 11 6 C7.7 6 4.4 6 1 6 C0.67 4.02 0.34 2.04 0 0 Z " fill="#F3B633" transform="translate(130,115)"/>
<path d="M0 0 C2 2 2 2 2.25 5.3125 C2.01477909 8.7820084 1.4299927 10.88766295 0 14 C-0.35858516 15.32676508 -0.7018576 16.65835921 -1 18 C-2.32 17.34 -3.64 16.68 -5 16 C-4.125 9.25 -4.125 9.25 -3 7 C-2.01 7 -1.02 7 0 7 C-0.2784375 5.824375 -0.2784375 5.824375 -0.5625 4.625 C-1 2 -1 2 0 0 Z " fill="#A06D40" transform="translate(178,93)"/>
<path d="M0 0 C2.5 0.125 2.5 0.125 3.5 1.125 C3.73529412 6.65441176 3.73529412 6.65441176 2.5 9.125 C-2.375 8.25 -2.375 8.25 -3.5 7.125 C-3.625 4.125 -3.625 4.125 -3.5 1.125 C-2.5 0.125 -2.5 0.125 0 0 Z " fill="#9E7348" transform="translate(112.5,120.875)"/>
<path d="M0 0 C0.6875 1.75 0.6875 1.75 1 4 C-0.4375 6.25 -0.4375 6.25 -2 8 C-1.01 7.34 -0.02 6.68 1 6 C4.0625 5.75 4.0625 5.75 7 6 C7.66 6.66 8.32 7.32 9 8 C8.113125 7.95875 7.22625 7.9175 6.3125 7.875 C3.02722987 7.99897246 0.94550705 8.61387904 -2 10 C-2 11.65 -2 13.3 -2 15 C-2.66 15 -3.32 15 -4 15 C-4.33 11.04 -4.66 7.08 -5 3 C-3.35 2.01 -1.7 1.02 0 0 Z " fill="#E1B059" transform="translate(133,106)"/>
<path d="M0 0 C0.90105469 0.01804687 1.80210938 0.03609375 2.73046875 0.0546875 C3.41753906 0.07789062 4.10460937 0.10109375 4.8125 0.125 C4.8125 0.785 4.8125 1.445 4.8125 2.125 C1.1825 2.125 -2.4475 2.125 -6.1875 2.125 C-5.98125 3.011875 -5.775 3.89875 -5.5625 4.8125 C-5.16199761 8.3502711 -5.62066484 9.99132967 -7.1875 13.125 C-9.4975 13.125 -11.8075 13.125 -14.1875 13.125 C-13.8575 11.805 -13.5275 10.485 -13.1875 9.125 C-13.1875 9.785 -13.1875 10.445 -13.1875 11.125 C-11.5375 11.125 -9.8875 11.125 -8.1875 11.125 C-8.22230469 10.49851562 -8.25710937 9.87203125 -8.29296875 9.2265625 C-8.32003906 8.40929687 -8.34710938 7.59203125 -8.375 6.75 C-8.40980469 5.93789062 -8.44460937 5.12578125 -8.48046875 4.2890625 C-8.38378906 3.57492188 -8.28710938 2.86078125 -8.1875 2.125 C-4.87379 -0.08414 -3.8428979 -0.09981553 0 0 Z " fill="#8B6740" transform="translate(110.1875,76.875)"/>
<path d="M0 0 C0 0.66 0 1.32 0 2 C0.66 2 1.32 2 2 2 C1.67 4.31 1.34 6.62 1 9 C0.01 8.67 -0.98 8.34 -2 8 C-1.67 6.68 -1.34 5.36 -1 4 C-1.99 4 -2.98 4 -4 4 C-3.67 4.99 -3.34 5.98 -3 7 C-3.99 7 -4.98 7 -6 7 C-6.66 5.68 -7.32 4.36 -8 3 C-5.53387212 -0.1151089 -3.89156016 -0.31553191 0 0 Z " fill="#A47D4F" transform="translate(126,111)"/>
<path d="M0 0 C0.99 0 1.98 0 3 0 C5.12905975 7.46887895 4.57079975 14.15596715 1 21 C-0.32 21 -1.64 21 -3 21 C-2.6875 19.125 -2.6875 19.125 -2 17 C-1.01 16.34 -0.02 15.68 1 15 C1.58687784 11.65386488 1.58687784 11.65386488 1.6875 7.875 C1.75324219 6.59367187 1.81898437 5.31234375 1.88671875 3.9921875 C1.92410156 3.00476563 1.96148437 2.01734375 2 1 C1.34 0.67 0.68 0.34 0 0 Z " fill="#97663F" transform="translate(100,95)"/>
<path d="M0 0 C2.475 0.99 2.475 0.99 5 2 C3.68 4.31 2.36 6.62 1 9 C0.01 8.01 -0.98 7.02 -2 6 C-2.99 6.495 -2.99 6.495 -4 7 C-4.33 5.68 -4.66 4.36 -5 3 C-4.360625 2.87625 -3.72125 2.7525 -3.0625 2.625 C-2.0415625 2.315625 -2.0415625 2.315625 -1 2 C-0.67 1.34 -0.34 0.68 0 0 Z " fill="#A37B54" transform="translate(102,113)"/>
<path d="M0 0 C0.99 0.33 1.98 0.66 3 1 C3.33 1.99 3.66 2.98 4 4 C4.99 3.67 5.98 3.34 7 3 C7.66 3.66 8.32 4.32 9 5 C5.24600202 6.2039337 1.66782588 6.09877617 -2.25 6.0625 C-3.51328125 6.05347656 -4.7765625 6.04445313 -6.078125 6.03515625 C-7.04234375 6.02355469 -8.0065625 6.01195313 -9 6 C-9 5.67 -9 5.34 -9 5 C-8.43410156 4.89042969 -7.86820312 4.78085938 -7.28515625 4.66796875 C-6.18494141 4.43013672 -6.18494141 4.43013672 -5.0625 4.1875 C-4.33160156 4.03667969 -3.60070312 3.88585937 -2.84765625 3.73046875 C-2.23792969 3.48941406 -1.62820312 3.24835938 -1 3 C-0.67 2.01 -0.34 1.02 0 0 Z " fill="#CBAA5B" transform="translate(75,109)"/>
<path d="M0 0 C0 0.33 0 0.66 0 1 C-0.93972656 1.09087891 -0.93972656 1.09087891 -1.8984375 1.18359375 C-3.12433594 1.30927734 -3.12433594 1.30927734 -4.375 1.4375 C-5.18710938 1.51871094 -5.99921875 1.59992188 -6.8359375 1.68359375 C-9.04272805 1.89090114 -9.04272805 1.89090114 -11 3 C-15.11592992 2.62582455 -17.52735662 2.31509559 -21 0 C-13.82242235 -1.01202288 -7.18808741 -0.88826175 0 0 Z " fill="#E1B14B" transform="translate(156,114)"/>
<path d="M0 0 C3.96 0 7.92 0 12 0 C11.67 2.97 11.34 5.94 11 9 C10.67 9 10.34 9 10 9 C10 6.69 10 4.38 10 2 C8.081875 2.061875 8.081875 2.061875 6.125 2.125 C3.9453125 2.1953125 3.9453125 2.1953125 2 2 C1.34 1.34 0.68 0.68 0 0 Z " fill="#E1AA57" transform="translate(85,113)"/>
<path d="M0 0 C2.5 1.375 2.5 1.375 5 3 C5 3.66 5 4.32 5 5 C5.99 4.67 6.98 4.34 8 4 C7.67 4.99 7.34 5.98 7 7 C4.50638429 5.79618552 2.31856917 4.54571278 0 3 C-0.66 3 -1.32 3 -2 3 C-2 3.66 -2 4.32 -2 5 C-2.66 4.67 -3.32 4.34 -4 4 C-2.68 2.68 -1.36 1.36 0 0 Z " fill="#8B6B48" transform="translate(170,92)"/>
<path d="M0 0 C2.125 0.375 2.125 0.375 4 1 C3.01 1 2.02 1 1 1 C1 2.65 1 4.3 1 6 C2.32 6.66 3.64 7.32 5 8 C3.1875 8.625 3.1875 8.625 1 9 C0.01 8.34 -0.98 7.68 -2 7 C-2.3125 4.5 -2.3125 4.5 -2 2 C-1.34 1.34 -0.68 0.68 0 0 Z " fill="#E7B344" transform="translate(166,140)"/>
<path d="M0 0 C0.99 0.99 1.98 1.98 3 3 C-2.28 3 -7.56 3 -13 3 C-13 3.66 -13 4.32 -13 5 C-13.66 4.67 -14.32 4.34 -15 4 C-14.67 3.34 -14.34 2.68 -14 2 C-11.6015625 1.62109375 -11.6015625 1.62109375 -8.625 1.4375 C-5.46357425 1.23313343 -3.01866352 1.00622117 0 0 Z " fill="#8B6542" transform="translate(124,57)"/>
<path d="M0 0 C0.6875 1.75 0.6875 1.75 1 4 C-0.4375 6.25 -0.4375 6.25 -2 8 C-2.99 7.67 -3.98 7.34 -5 7 C-4.75 4.625 -4.75 4.625 -4 2 C-1.9375 0.6875 -1.9375 0.6875 0 0 Z " fill="#B9A485" transform="translate(133,106)"/>
<path d="M0 0 C1.32 0.33 2.64 0.66 4 1 C4 2.65 4 4.3 4 6 C2.68 6 1.36 6 0 6 C0 4.02 0 2.04 0 0 Z " fill="#FAB427" transform="translate(145,141)"/>
<path d="M0 0 C1.32 0.66 2.64 1.32 4 2 C2.68 3.65 1.36 5.3 0 7 C0 6.34 0 5.68 0 5 C-0.66 5 -1.32 5 -2 5 C-1.34 3.35 -0.68 1.7 0 0 Z " fill="#E6CBA8" transform="translate(117,116)"/>
<path d="M0 0 C0.66 0 1.32 0 2 0 C1.39305845 3.15330554 0.3583335 5.18888867 -1.5625 7.75 C-2.24505859 8.67039062 -2.24505859 8.67039062 -2.94140625 9.609375 C-3.46541016 10.29773438 -3.46541016 10.29773438 -4 11 C-4.66 10.34 -5.32 9.68 -6 9 C-4.73046875 7.53515625 -3.4609375 6.0703125 -2.19140625 4.60546875 C-0.79128769 2.89287029 -0.79128769 2.89287029 0 0 Z " fill="#826341" transform="translate(132,88)"/>
<path d="M0 0 C0.66 1.32 1.32 2.64 2 4 C1.01 5.485 1.01 5.485 0 7 C-1.32 6.67 -2.64 6.34 -4 6 C-4 5.01 -4 4.02 -4 3 C-2.68 3 -1.36 3 0 3 C0 2.01 0 1.02 0 0 Z " fill="#F1B435" transform="translate(64,157)"/>
<path d="M0 0 C0.66 0.66 1.32 1.32 2 2 C1.34 3.32 0.68 4.64 0 6 C0 5.01 0 4.02 0 3 C-2.31 3 -4.62 3 -7 3 C-7.33 2.34 -7.66 1.68 -8 1 C-7.05125 1.020625 -6.1025 1.04125 -5.125 1.0625 C-2.09333717 1.22551826 -2.09333717 1.22551826 0 0 Z " fill="#8E683E" transform="translate(115,71)"/>
<path d="M0 0 C0 1.32 0 2.64 0 4 C-1.65 4.33 -3.3 4.66 -5 5 C-5.66 3.68 -6.32 2.36 -7 1 C-4.50935112 0.31292445 -2.62113708 0 0 0 Z " fill="#FDBA37" transform="translate(139,115)"/>
<path d="M0 0 C0.99 0.33 1.98 0.66 3 1 C3 2.32 3 3.64 3 5 C1.02 5 -0.96 5 -3 5 C-2.01 4.34 -1.02 3.68 0 3 C0 2.01 0 1.02 0 0 Z " fill="#F5B038" transform="translate(23,131)"/>
<path d="M0 0 C2.475 0.495 2.475 0.495 5 1 C3.02 1.99 3.02 1.99 1 3 C0.67 2.01 0.34 1.02 0 0 Z " fill="#A5948A" transform="translate(127,105)"/>
<path d="M0 0 C0.66 0.66 1.32 1.32 2 2 C1.01 2.495 1.01 2.495 0 3 C0 2.01 0 1.02 0 0 Z " fill="#A39793" transform="translate(126,107)"/>
<path d="" fill="#959595" transform="translate(0,0)"/>
<path d="" fill="#959595" transform="translate(0,0)"/>
</svg>
