<?xml version="1.0" encoding="UTF-8"?>
<svg version="1.1" xmlns="http://www.w3.org/2000/svg" width="225" height="225">
<path d="M0 0 C0.54398438 0.52078125 1.08796875 1.0415625 1.6484375 1.578125 C2.47214844 2.34382813 2.47214844 2.34382813 3.3125 3.125 C5.21922204 5.02301554 7.12521043 6.92160873 9.0234375 8.828125 C9.57773437 8.19003906 10.13203125 7.55195312 10.703125 6.89453125 C11.42757812 6.06824219 12.15203125 5.24195312 12.8984375 4.390625 C13.61773437 3.56691406 14.33703125 2.74320312 15.078125 1.89453125 C17.61368479 -0.79886459 18.41871001 -1.13815027 22.14477539 -1.34594727 C26.28948523 -1.15993492 30.08126034 -0.39848783 34.08203125 0.61328125 C35.61776497 0.98272784 37.15357464 1.35185881 38.68945312 1.72070312 C41.07785837 2.30400111 43.46505003 2.89164883 45.85083008 3.4855957 C48.17516 4.06099127 50.50313168 4.61921598 52.83203125 5.17578125 C53.53436386 5.35593277 54.23669647 5.53608429 54.96031189 5.72169495 C61.97315629 7.380296 68.02367596 6.1252991 75.02734375 4.63671875 C76.09791016 4.41435547 77.16847656 4.19199219 78.27148438 3.96289062 C80.4856494 3.49709398 82.69919243 3.02833108 84.91210938 2.55664062 C95.75450392 0.31496412 95.75450392 0.31496412 101.0234375 0.828125 C103.0234375 2.828125 103.0234375 2.828125 103.1484375 5.953125 C103.1071875 6.901875 103.0659375 7.850625 103.0234375 8.828125 C98.3655186 10.9569395 94.07317494 12.42136225 89.0234375 13.43359375 C88.064375 13.62699089 88.064375 13.62699089 87.0859375 13.82429504 C85.74553665 14.09258588 84.40437267 14.35709018 83.0625 14.61791992 C81.02632674 15.01506147 78.99369063 15.42754494 76.9609375 15.84179688 C75.64862025 16.10248416 74.33612552 16.36227992 73.0234375 16.62109375 C71.8478125 16.8533667 70.6721875 17.08563965 69.4609375 17.32495117 C62.82000624 18.29703635 57.1854422 17.63438662 50.75390625 16.078125 C49.99169266 15.90055664 49.22947906 15.72298828 48.44416809 15.54003906 C46.03132349 14.97663922 43.62109988 14.40288014 41.2109375 13.828125 C38.78251014 13.25531696 36.35359294 12.68468971 33.92414856 12.11621094 C32.41766644 11.76303827 30.91185007 11.40701117 29.40678406 11.04785156 C25.75502884 10.1446008 25.75502884 10.1446008 22.0234375 9.828125 C20.48731274 11.57120394 19.01803391 13.37361596 17.5859375 15.203125 C15.13674031 18.32615404 13.33433049 20.62086301 10.0234375 22.828125 C6.15363406 22.83462887 4.98250906 21.78962685 2.12890625 19.10546875 C1.14470997 18.00237628 0.17228086 16.88868967 -0.7890625 15.765625 C-1.29115234 15.19779297 -1.79324219 14.62996094 -2.31054688 14.04492188 C-3.54283474 12.64832896 -4.76111898 11.2394018 -5.9765625 9.828125 C-6.88019531 10.116875 -7.78382812 10.405625 -8.71484375 10.703125 C-9.89433594 11.074375 -11.07382812 11.445625 -12.2890625 11.828125 C-14.04669922 12.385 -14.04669922 12.385 -15.83984375 12.953125 C-18.9765625 13.828125 -18.9765625 13.828125 -21.9765625 13.828125 C-21.82711182 14.57143066 -21.67766113 15.31473633 -21.52368164 16.08056641 C-20.76140675 21.30186026 -20.51041165 26.5229015 -20.22265625 31.7890625 C-20.15748306 32.93476715 -20.09230988 34.0804718 -20.02516174 35.26089478 C-19.81839384 38.90813932 -19.61616767 42.5556194 -19.4140625 46.203125 C-19.27438832 48.6810065 -19.13441776 51.15887131 -18.99414062 53.63671875 C-18.65151286 59.70033164 -18.3126103 65.76414408 -17.9765625 71.828125 C-17.0278125 72.158125 -16.0790625 72.488125 -15.1015625 72.828125 C-11.9765625 74.828125 -11.9765625 74.828125 -10.65258789 78.32861328 C-9.72060795 83.44776323 -9.43619005 88.63160194 -9.16015625 93.8203125 C-9.09876968 94.84746368 -9.03738312 95.87461487 -8.97413635 96.93289185 C-8.78030791 100.18926551 -8.59642751 103.44609081 -8.4140625 106.703125 C-8.22699472 109.98149392 -8.03772626 113.25968852 -7.84327698 116.53762817 C-7.72293104 118.57176629 -7.60702321 120.60617275 -7.49595642 122.64083862 C-7.41565941 124.01334274 -7.41565941 124.01334274 -7.33374023 125.41357422 C-7.28869858 126.21995331 -7.24365692 127.0263324 -7.19725037 127.85714722 C-7.08291939 129.90283654 -7.08291939 129.90283654 -5.9765625 131.828125 C3.5934375 131.828125 13.1634375 131.828125 23.0234375 131.828125 C24.3122459 118.82519671 25.43079906 105.84295155 26.25437737 92.80320549 C26.49300153 89.0474844 26.74271621 85.29252068 26.99150181 81.53746128 C27.4510296 74.59868894 27.9057107 67.65966272 28.34350586 60.71948242 C28.65185715 55.83802938 28.97333714 50.95759574 29.30359077 46.07757759 C29.42608478 44.23071518 29.54367428 42.38352051 29.65620232 40.53602409 C29.81295651 37.97085185 29.98641726 35.40732103 30.16381836 32.84350586 C30.22708313 31.70832016 30.22708313 31.70832016 30.29162598 30.55020142 C30.59299983 26.47835339 31.00600735 23.70954195 34.0234375 20.828125 C36.5234375 20.328125 36.5234375 20.328125 39.0234375 20.828125 C41.31555388 23.10911542 41.99137071 24.37212371 42.22009277 27.62463379 C42.13650513 28.70563354 42.05291748 29.7866333 41.96679688 30.90039062 C41.87982544 32.13768921 41.792854 33.37498779 41.70324707 34.64978027 C41.59140419 36.0113264 41.47937865 37.37285753 41.3671875 38.734375 C41.26166644 40.16186708 41.15782077 41.58948387 41.05554199 43.01721191 C40.83620395 46.05455532 40.60858695 49.09112411 40.37548828 52.12744141 C40.02242479 56.77444205 39.71041171 61.42354013 39.41015625 66.07421875 C39.36052734 66.84232376 39.31089844 67.61042877 39.25976562 68.40180969 C39.20997559 69.17244247 39.16018555 69.94307526 39.10888672 70.73706055 C38.7542434 76.22601416 38.38141089 81.71369068 38.00720215 87.20133972 C37.73424018 91.20753264 37.46417004 95.21387477 37.20068359 99.22070312 C36.93892702 103.20026464 36.67008134 107.17928871 36.39622498 111.15803528 C36.29489312 112.6472773 36.19599858 114.13668751 36.0997467 115.62626648 C34.8652447 134.66400155 34.8652447 134.66400155 30.5234375 139.765625 C26.46710029 143.1121032 23.42677604 143.00206343 18.34765625 143.03125 C17.58548294 143.03695007 16.82330963 143.04265015 16.03804016 143.04852295 C14.42324208 143.05797581 12.80842468 143.06450807 11.19360352 143.06835938 C8.73093658 143.07804633 6.26911094 143.10905803 3.80664062 143.140625 C2.23698412 143.1471571 0.66732164 143.15240676 -0.90234375 143.15625 C-2.00259636 143.1747702 -2.00259636 143.1747702 -3.12507629 143.19366455 C-7.59846938 143.17431706 -10.42212252 142.5839395 -13.9765625 139.828125 C-17.13384068 135.43048754 -18.04449063 131.55606979 -18.28613281 126.23071289 C-18.35190521 124.87394188 -18.35190521 124.87394188 -18.41900635 123.48976135 C-18.46378113 122.51989792 -18.50855591 121.55003448 -18.5546875 120.55078125 C-18.66416544 118.49017032 -18.77488074 116.42962482 -18.88671875 114.36914062 C-19.06023954 111.12607151 -19.22688851 107.88336391 -19.37255859 104.63891602 C-19.51587401 101.50383168 -19.68894158 98.37154867 -19.8671875 95.23828125 C-19.90386536 94.27044205 -19.94054321 93.30260284 -19.97833252 92.30543518 C-20.26510175 87.69500343 -20.41457452 85.50599024 -23.43701172 81.86035156 C-24.27506348 81.1897168 -25.11311523 80.51908203 -25.9765625 79.828125 C-29.88817187 73.25907697 -29.71810298 66.12974808 -30.1015625 58.640625 C-30.17915724 57.29242146 -30.25777904 55.94427666 -30.33740234 54.59619141 C-30.56538836 50.67426593 -30.77091916 46.75128574 -30.9765625 42.828125 C-31.09022964 40.82937477 -31.20470865 38.8306704 -31.3203125 36.83203125 C-31.58301284 32.16543971 -31.79420619 27.49847266 -31.9765625 22.828125 C-32.03070313 21.60480469 -32.08484375 20.38148437 -32.140625 19.12109375 C-32.16898438 18.05503906 -32.19734375 16.98898438 -32.2265625 15.890625 C-32.25234375 15.01535156 -32.278125 14.14007813 -32.3046875 13.23828125 C-31.84525722 9.86365643 -31.25848956 8.42407872 -28.9765625 5.828125 C-25.65321849 4.1825374 -22.20292592 3.10395163 -18.6640625 2.015625 C-17.72626953 1.70431641 -16.78847656 1.39300781 -15.82226562 1.07226562 C-4.37982481 -2.59673407 -4.37982481 -2.59673407 0 0 Z " fill="#FACA0D" transform="translate(37.9765625,78.171875)"/>
<path d="M0 0 C1.06012841 -0.00573832 1.06012841 -0.00573832 2.14167356 -0.01159257 C4.52164765 -0.02195237 6.90138182 -0.01792487 9.28137207 -0.01396179 C10.98283615 -0.01830659 12.68429826 -0.02348896 14.38575745 -0.02944946 C19.01581286 -0.04287482 23.64578683 -0.04341428 28.27585793 -0.04088616 C32.13549127 -0.03981897 35.99510797 -0.04469327 39.85473776 -0.04949158 C48.95643444 -0.06059873 58.05808985 -0.06101722 67.15979004 -0.05497742 C76.56313864 -0.04893362 85.96633776 -0.06125617 95.36966085 -0.08254749 C103.43167119 -0.10013349 111.49363381 -0.10616965 119.55566263 -0.10290974 C124.37580838 -0.10109214 129.19584749 -0.10378042 134.01597595 -0.11762428 C138.54677052 -0.13014957 143.07733112 -0.12830916 147.60812187 -0.11521339 C149.27466852 -0.11283654 150.94123138 -0.11562166 152.60775948 -0.12383652 C154.87558254 -0.13421267 157.1426071 -0.12627828 159.41040039 -0.11352539 C161.31738079 -0.113777 161.31738079 -0.113777 163.26288605 -0.1140337 C164.23384972 0.00962724 165.20481339 0.13328817 166.2052002 0.26069641 C168.43434985 3.6044209 168.45754645 4.6722232 168.46589661 8.57453918 C168.47298141 9.67658188 168.48006622 10.77862457 168.48736572 11.9140625 C168.48488831 13.12351028 168.48241089 14.33295807 168.4798584 15.57905579 C168.48496933 16.85239273 168.49008026 18.12572968 168.49534607 19.43765259 C168.5087472 22.93139574 168.50931361 26.42503079 168.50678277 29.91879463 C168.50571398 32.83396131 168.51059396 35.74910603 168.51538819 38.66426802 C168.52648685 45.54001472 168.52691853 52.4157068 168.52087402 59.29145813 C168.51483047 66.38916353 168.52715399 73.48667088 168.54844409 80.58434248 C168.56604387 86.6752828 168.5720641 92.76615998 168.56880635 98.85712481 C168.56699101 102.49631668 168.56965454 106.13536723 168.58352089 109.77453613 C168.59839735 113.83060122 168.58914344 117.88626141 168.57751465 121.94233704 C168.58515839 123.15178482 168.59280212 124.3612326 168.60067749 125.60733032 C168.59366318 126.70937302 168.58664886 127.81141571 168.579422 128.94685364 C168.57958974 129.90623085 168.57975748 130.86560806 168.57993031 131.85405731 C168.2052002 134.26069641 168.2052002 134.26069641 167.00918102 136.06900215 C164.56146076 137.68594516 162.89388439 137.6381431 159.96728516 137.64164734 C158.88207077 137.65010681 157.79685638 137.65856628 156.67875671 137.6672821 C154.89263725 137.65817307 154.89263725 137.65817307 153.07043457 137.64888 C151.81660477 137.65413696 150.56277496 137.65939392 149.27095032 137.66481018 C145.83076353 137.67576381 142.39111687 137.67317944 138.95096016 137.66367292 C135.35287874 137.65608386 131.75482059 137.66311983 128.15673828 137.66783142 C122.11409353 137.67329119 116.07155873 137.66609163 110.02893066 137.65180969 C103.04027606 137.63548267 96.051884 137.64077103 89.06323576 137.65728891 C83.06570292 137.67089754 77.06824918 137.67282651 71.07070589 137.6649729 C67.48741635 137.66029292 63.90425026 137.65968034 60.32096863 137.66958237 C56.32719699 137.67984759 52.33372006 137.6656247 48.33996582 137.64888 C47.14921951 137.6549527 45.95847321 137.66102539 44.73164368 137.6672821 C43.1038221 137.6545929 43.1038221 137.6545929 41.44311523 137.64164734 C40.02617245 137.63995072 40.02617245 137.63995072 38.58060455 137.63821983 C36.2052002 137.26069641 36.2052002 137.26069641 34.36220551 135.93219948 C33.2052002 134.26069641 33.2052002 134.26069641 33.4552002 131.13569641 C34.2052002 128.26069641 34.2052002 128.26069641 35.2052002 127.26069641 C36.70939986 127.15064748 38.21869459 127.10943643 39.72685242 127.0957489 C40.70401215 127.08451492 41.68117187 127.07328094 42.6879425 127.06170654 C43.76895737 127.05438004 44.84997223 127.04705353 45.96374512 127.039505 C47.09542114 127.02799911 48.22709717 127.01649323 49.39306641 127.00463867 C53.15723909 126.96777448 56.92142876 126.93823145 60.68566895 126.90913391 C63.29303739 126.88602949 65.90040331 126.86263927 68.50776672 126.838974 C73.98476631 126.7900813 79.46178892 126.74542284 84.93884277 126.70307922 C91.26390354 126.65411273 97.58886735 126.59780291 103.91383094 126.5376581 C109.99904451 126.48002394 116.08429347 126.42831375 122.16958046 126.37906265 C124.75755473 126.3574942 127.34551634 126.33434646 129.93346214 126.30959702 C133.55551615 126.27568609 137.17756035 126.24851138 140.79968262 126.22309875 C142.40602318 126.2060363 142.40602318 126.2060363 144.04481506 126.18862915 C145.03607391 126.18303482 146.02733276 126.17744049 147.04862976 126.17167664 C147.90459842 126.16467932 148.76056707 126.157682 149.64247417 126.15047264 C152.51794928 126.27414786 155.36622677 126.78753417 158.2052002 127.26069641 C158.2052002 88.65069641 158.2052002 50.04069641 158.2052002 10.26069641 C146.32906738 10.30710266 134.45293457 10.35350891 122.21691895 10.40132141 C114.71105612 10.42174988 107.20521333 10.44117019 99.69934082 10.45600891 C87.77519881 10.47977117 75.85116959 10.50775056 63.92712402 10.56245422 C55.24404961 10.60227044 46.56106645 10.62811694 37.87790328 10.63705039 C33.2783932 10.64227401 28.6791442 10.65458619 24.07971764 10.68361664 C19.75330133 10.71070348 15.42725445 10.71915515 11.10076141 10.71312714 C9.51040707 10.7142304 7.92004078 10.72222447 6.3297596 10.73751831 C4.16271545 10.75734209 1.99707666 10.75266505 -0.16999817 10.74171448 C-1.99100021 10.74724524 -1.99100021 10.74724524 -3.84879017 10.75288773 C-6.7947998 10.26069641 -6.7947998 10.26069641 -8.72056866 8.36344528 C-9.7947998 6.26069641 -9.7947998 6.26069641 -9.6072998 4.13569641 C-7.55453023 -0.60146415 -4.69452584 0.00758051 0 0 Z " fill="#FCCB0A" transform="translate(50.7947998046875,3.7393035888671875)"/>
<path d="M0 0 C5.48810334 4.31292062 9.37363884 10.63099413 10.25 17.65625 C10.49775154 24.84104472 8.81759859 31.04427703 4.43359375 36.828125 C-1.21044295 42.86622732 -6.26894616 44.88253409 -14.42578125 45.18359375 C-21.81651322 44.99691625 -26.15920032 43.12509362 -31.73828125 38.43359375 C-37.08250386 32.05021674 -39.4272232 26.05471728 -39.328125 17.73046875 C-38.58704931 11.22263166 -35.4676595 5.78441559 -30.73828125 1.30859375 C-21.53768238 -5.75186582 -9.78373603 -6.17009679 0 0 Z M-25.86328125 11.24609375 C-28.9543189 14.88260863 -29.33890005 17.9617502 -29.26953125 22.6875 C-28.66245577 27.13095525 -25.74035849 29.90553684 -22.86328125 33.12109375 C-18.60432417 35.52833036 -14.76930544 35.51228352 -9.98828125 34.74609375 C-6.1044505 32.76887082 -2.99777564 30.65931966 -0.98828125 26.74609375 C0.10150878 22.32779773 0.37334789 18.85225348 -1.05078125 14.49609375 C-4.19650919 10.03118958 -7.12454609 7.28827125 -12.42578125 5.74609375 C-18.10176151 5.74609375 -21.62131466 7.55742715 -25.86328125 11.24609375 Z " fill="#FACB0B" transform="translate(60.98828125,27.25390625)"/>
<path d="M0 0 C0.99 0 1.98 0 3 0 C3 0.66 3 1.32 3 2 C2.34 2.66 1.68 3.32 1 4 C1 5.32 1 6.64 1 8 C43.9 8 86.8 8 131 8 C130.67 8.66 130.34 9.32 130 10 C113.23232193 10.07003679 96.4646912 10.12296195 79.69690228 10.15543652 C71.91157331 10.17091484 64.12633514 10.1920227 56.34106445 10.22631836 C49.55654793 10.25619129 42.77209716 10.27556798 35.9875167 10.28226548 C32.39408309 10.28618135 28.80083761 10.29540395 25.20746422 10.31719017 C21.19901508 10.34129651 17.19089439 10.34197136 13.18237305 10.34057617 C11.9869136 10.351362 10.79145416 10.36214783 9.55976868 10.3732605 C7.92544388 10.36707451 7.92544388 10.36707451 6.25810242 10.36076355 C5.30957744 10.36352893 4.36105246 10.36629431 3.38378429 10.36914349 C1 10 1 10 -0.8442564 8.67276478 C-2 7 -2 7 -1.75 3.875 C-1 1 -1 1 0 0 Z " fill="#F0C93B" transform="translate(86,131)"/>
<path d="M0 0 C0.70318359 0.00128906 1.40636719 0.00257812 2.13085938 0.00390625 C6.19104604 0.0724005 9.40955594 0.58784537 13.0625 2.375 C13.0625 3.035 13.0625 3.695 13.0625 4.375 C14.0525 4.375 15.0425 4.375 16.0625 4.375 C16.0625 5.365 16.0625 6.355 16.0625 7.375 C16.7225 7.375 17.3825 7.375 18.0625 7.375 C18.0625 9.355 18.0625 11.335 18.0625 13.375 C16.125 13.0625 16.125 13.0625 14.0625 12.375 C13.7325 11.385 13.4025 10.395 13.0625 9.375 C11.78632812 9.38660156 10.51015625 9.39820313 9.1953125 9.41015625 C7.52604313 9.41953417 5.85677217 9.42863437 4.1875 9.4375 C2.92486328 9.45006836 2.92486328 9.45006836 1.63671875 9.46289062 C0.83105469 9.46611328 0.02539062 9.46933594 -0.8046875 9.47265625 C-1.92012939 9.48051147 -1.92012939 9.48051147 -3.05810547 9.48852539 C-4.9375 9.375 -4.9375 9.375 -6.9375 8.375 C-7.2675 9.035 -7.5975 9.695 -7.9375 10.375 C-9.9175 10.375 -11.8975 10.375 -13.9375 10.375 C-11.67218369 2.0688402 -8.52662839 -0.29536179 0 0 Z " fill="#FCCB04" transform="translate(43.9375,24.625)"/>
<path d="M0 0 C0.33 0 0.66 0 1 0 C1.90341993 4.7917658 2.28713478 9.54486082 2.53515625 14.40625 C2.59962196 15.60888489 2.59962196 15.60888489 2.66539001 16.83581543 C2.75525699 18.53010345 2.84340387 20.22448348 2.92993164 21.91894531 C3.06067669 24.4645008 3.19888206 27.00957154 3.33789062 29.5546875 C3.84144099 39.04881867 4.13186671 48.4899682 4 58 C3.34 58 2.68 58 2 58 C2 47.11 2 36.22 2 25 C1.34 25 0.68 25 0 25 C0 16.75 0 8.5 0 0 Z " fill="#F3CB35" transform="translate(15,92)"/>
<path d="M0 0 C0.33 0 0.66 0 1 0 C1 7.59 1 15.18 1 23 C-2.85993104 23.96498276 -5.57635274 24.0400583 -9.515625 23.87890625 C-10.76601563 23.83056641 -12.01640625 23.78222656 -13.3046875 23.73242188 C-14.60664062 23.67634766 -15.90859375 23.62027344 -17.25 23.5625 C-18.56742188 23.51029297 -19.88484375 23.45808594 -21.2421875 23.40429688 C-24.49503428 23.27465443 -27.74757167 23.13968844 -31 23 C-31 22.67 -31 22.34 -31 22 C-21.43 21.67 -11.86 21.34 -2 21 C-1.01 10.605 -1.01 10.605 0 0 Z M-6 24 C-4.02 24.495 -4.02 24.495 -2 25 C-2.33 26.32 -2.66 27.64 -3 29 C-2.01 29.66 -1.02 30.32 0 31 C-2.31 31 -4.62 31 -7 31 C-6.34 30.67 -5.68 30.34 -5 30 C-5.33 28.02 -5.66 26.04 -6 24 Z " fill="#F0C82E" transform="translate(63,189)"/>
<path d="M0 0 C4.31144836 1.53558435 7.13368244 3.67810898 10.4375 6.8125 C10.1075 7.4725 9.7775 8.1325 9.4375 8.8125 C8.1175 8.4825 6.7975 8.1525 5.4375 7.8125 C5.4375 6.8225 5.4375 5.8325 5.4375 4.8125 C4.4475 4.8125 3.4575 4.8125 2.4375 4.8125 C2.4375 4.1525 2.4375 3.4925 2.4375 2.8125 C-3.5025 2.1525 -9.4425 1.4925 -15.5625 0.8125 C-10.03020519 -1.9536474 -5.83098887 -1.72770041 0 0 Z " fill="#F1C830" transform="translate(54.5625,24.1875)"/>
<path d="M0 0 C0.99 0.33 1.98 0.66 3 1 C1.64664405 4.08859947 0.19113751 6.007964 -2.375 8.1875 C-2.96023437 8.69667969 -3.54546875 9.20585938 -4.1484375 9.73046875 C-6.11024909 11.07559273 -7.676089 11.57514402 -10 12 C-8.71480435 9.13302508 -7.42870746 7.02392288 -5 5 C-4.34 5 -3.68 5 -3 5 C-1.33333333 3.66666667 -1.33333333 3.66666667 0 2 C0 1.34 0 0.68 0 0 Z " fill="#F6C81E" transform="translate(64,59)"/>
<path d="M0 0 C3.69942685 0.49992255 5.69078997 1.0094248 8 4 C8.34057617 6.17651367 8.34057617 6.17651367 8.29296875 8.66796875 C8.28330078 9.56064453 8.27363281 10.45332031 8.26367188 11.37304688 C8.23853516 12.30181641 8.21339844 13.23058594 8.1875 14.1875 C8.17396484 15.12787109 8.16042969 16.06824219 8.14648438 17.03710938 C8.11113096 19.35865038 8.06178674 21.67903653 8 24 C7.67 24 7.34 24 7 24 C6.98582031 22.83082031 6.97164062 21.66164062 6.95703125 20.45703125 C6.91011562 18.90881543 6.86186831 17.36063956 6.8125 15.8125 C6.80669922 15.04357422 6.80089844 14.27464844 6.79492188 13.48242188 C6.62782888 9.1565699 6.41808693 7.49159672 3.51171875 4.07421875 C2.68285156 3.38972656 1.85398437 2.70523438 1 2 C0.67 1.34 0.34 0.68 0 0 Z " fill="#F3C62B" transform="translate(11,156)"/>
<path d="M0 0 C1.32 0 2.64 0 4 0 C4 0.66 4 1.32 4 2 C4.94875 1.95875 5.8975 1.9175 6.875 1.875 C11.70727658 1.85515492 16.30627004 2.94225804 21 4 C21 4.33 21 4.66 21 5 C12.82632933 5.4485551 7.02436254 5.40744316 0 1 C0 0.67 0 0.34 0 0 Z " fill="#F4CA28" transform="translate(32,67)"/>
<path d="M0 0 C0.33 0.66 0.66 1.32 1 2 C1.66 2.33 2.32 2.66 3 3 C-3.59874523 8.02761541 -9.95127124 7.40187827 -18 7 C-17.67 6.34 -17.34 5.68 -17 5 C-16.02160156 5.06960937 -16.02160156 5.06960937 -15.0234375 5.140625 C-8.90899792 5.39313873 -5.70171033 4.97837028 -1 1 C-0.67 0.67 -0.34 0.34 0 0 Z " fill="#F3C526" transform="translate(58,56)"/>
<path d="M0 0 C0.66 0.33 1.32 0.66 2 1 C1.79503906 1.56847656 1.59007812 2.13695313 1.37890625 2.72265625 C-0.29092669 7.5084454 -1.46376936 11.95943201 -2 17 C-2.33 17 -2.66 17 -3 17 C-3.08160748 15.10489301 -3.13946459 13.20875496 -3.1875 11.3125 C-3.22230469 10.25675781 -3.25710937 9.20101562 -3.29296875 8.11328125 C-2.96666615 4.64577232 -1.99030125 2.81567552 0 0 Z " fill="#F0C72C" transform="translate(9,84)"/>
<path d="M0 0 C0.66 0 1.32 0 2 0 C1.98839844 0.74765625 1.97679687 1.4953125 1.96484375 2.265625 C1.95582031 3.25046875 1.94679687 4.2353125 1.9375 5.25 C1.92589844 6.22453125 1.91429687 7.1990625 1.90234375 8.203125 C1.98804423 10.65758678 2.29293934 12.66168914 3 15 C2.01 15.33 1.02 15.66 0 16 C0 10.72 0 5.44 0 0 Z " fill="#F0C72A" transform="translate(31,41)"/>
<path d="M0 0 C0.99 0.495 0.99 0.495 2 1 C2 1.66 2 2.32 2 3 C2.99 3 3.98 3 5 3 C5.12375 3.598125 5.2475 4.19625 5.375 4.8125 C5.95475985 7.26231348 5.95475985 7.26231348 8 10 C4.72847271 9.02738378 3.25454871 8.34232413 1.1875 5.5625 C0 3 0 3 0 0 Z " fill="#F5CA22" transform="translate(21,210)"/>
<path d="M0 0 C-2.20519723 1.1434356 -4.35544665 2.13225922 -6.6875 3 C-9.15427599 3.77234179 -9.15427599 3.77234179 -10 6 C-10 4.35 -10 2.7 -10 1 C-6.78548731 -0.60725635 -3.56387464 -0.05748185 0 0 Z " fill="#F5C72A" transform="translate(45,33)"/>
<path d="M0 0 C0.66 0.33 1.32 0.66 2 1 C-0.07143201 5.03384128 -1.96615872 6.92856799 -6 9 C-4.68775452 5.06326356 -3.08089673 2.77280706 0 0 Z " fill="#EFC729" transform="translate(31,28)"/>
<path d="M0 0 C5.66153846 1.47692308 5.66153846 1.47692308 7.375 4.125 C7.684375 5.053125 7.684375 5.053125 8 6 C6.35 5.67 4.7 5.34 3 5 C3 4.01 3 3.02 3 2 C2.01 2 1.02 2 0 2 C0 1.34 0 0.68 0 0 Z " fill="#F5CB23" transform="translate(57,27)"/>
<path d="M0 0 C1.32 0.33 2.64 0.66 4 1 C3.67 3.31 3.34 5.62 3 8 C1.0549 5.08235 0.54723683 3.37462715 0 0 Z " fill="#F4CB16" transform="translate(58,37)"/>
</svg>
